<svg xmlns="http://www.w3.org/2000/svg" xmlns:xlink="http://www.w3.org/1999/xlink" xmlns:lucid="lucid" width="1629.63" height="1598.25"><g transform="translate(326.7612412294475 517.0174376905372)" lucid:page-tab-id="0_0"><path d="M-324.76-460.76a6 6 0 0 1 6-6h1613.63a6 6 0 0 1 6 6v1534a6 6 0 0 1-6 6H-318.77a6 6 0 0 1-6-6z" stroke="#000" stroke-width="4" fill-opacity="0"/><path d="M-324.76-509.02a6 6 0 0 1 6-6H-49.9a6 6 0 0 1 6 6v24.26a6 6 0 0 1-6 6h-268.86a6 6 0 0 1-6-6z" stroke="#000" stroke-width="4"/><use xlink:href="#a" transform="matrix(1,0,0,1,-316.7612412294475,-507.01743769053724) translate(0 16.589501953125)"/><use xlink:href="#b" transform="matrix(1,0,0,1,-316.7612412294475,-507.01743769053724) translate(73.016806640625 16.589501953125)"/><use xlink:href="#c" transform="matrix(1,0,0,1,-316.7612412294475,-507.01743769053724) translate(185.243466796875 16.589501953125)"/><path d="M491.1-290.76v19.55m0 19.55v39.1m0 19.56v39.13m0 19.55v39.1m0 19.57v39.1m0 19.56v39.13m0 19.55v39.1m0 19.57v39.1m0 19.56v39.13m0 19.55v39.1m0 19.57v39.1m0 19.56v39.13m0 19.55v39.1m0 19.57v39.1m0 19.56v39.13m0 19.55v39.1m0 19.57v39.1m0 19.56v39.13m0 19.55v39.1m0 19.57v39.1m0 19.56v39.13m0 19.55v19.56" stroke="#1071e5" stroke-width="4" fill="none"/><path d="M493.08-290.7h-3.95v-2.06h3.95zM493.08 943.24h-3.95v-2.05h3.95z" stroke="#1071e5" stroke-width=".05" fill="#1071e5"/><path d="M1155.7-290.76v19.55m0 19.55v39.1m0 19.56v39.13m0 19.55v39.1m0 19.57v39.1m0 19.56v39.13m0 19.55v39.1m0 19.57v39.1m0 19.56v39.13m0 19.55v39.1m0 19.57v39.1m0 19.56v39.13m0 19.55v39.1m0 19.57v39.1m0 19.56v39.13m0 19.55v39.1m0 19.57v39.1m0 19.56v39.13m0 19.55v39.1m0 19.57v39.1m0 19.56v39.13m0 19.55v19.56" stroke="#1071e5" stroke-width="4" fill="none"/><path d="M1157.68-290.7h-3.95v-2.06h3.95zM1157.68 943.24h-3.95v-2.05h3.95z" stroke="#1071e5" stroke-width=".05" fill="#1071e5"/><path d="M809.08-290.76v19.55m0 19.55v39.1m0 19.56v39.13m0 19.55v39.1m0 19.57v39.1m0 19.56v39.13m0 19.55v39.1m0 19.57v39.1m0 19.56v39.13m0 19.55v39.1m0 19.57v39.1m0 19.56v39.13m0 19.55v39.1m0 19.57v39.1m0 19.56v39.13m0 19.55v39.1m0 19.57v39.1m0 19.56v39.13m0 19.55v39.1m0 19.57v39.1m0 19.56v39.13m0 19.55v19.56" stroke="#1071e5" stroke-width="4" fill="none"/><path d="M811.05-290.7h-3.95v-2.06h3.95zM811.05 943.24h-3.95v-2.05h3.95z" stroke="#1071e5" stroke-width=".05" fill="#1071e5"/><path d="M175.72-290.76v19.55m0 19.55v39.1m0 19.56v39.13m0 19.55v39.1m0 19.57v39.1m0 19.56v39.13m0 19.55v39.1m0 19.57v39.1m0 19.56v39.13m0 19.55v39.1m0 19.57v39.1m0 19.56v39.13m0 19.55v39.1m0 19.57v39.1m0 19.56v39.13m0 19.55v39.1m0 19.57v39.1m0 19.56v39.13m0 19.55v39.1m0 19.57v39.1m0 19.56v39.13m0 19.55v19.56" stroke="#1071e5" stroke-width="4" fill="none"/><path d="M177.7-290.7h-3.96v-2.06h3.95zM177.7 943.24h-3.96v-2.05h3.95z" stroke="#1071e5" stroke-width=".05" fill="#1071e5"/><path d="M-173.96-290.76v19.55m0 19.55v39.1m0 19.56v39.13m0 19.55v39.1m0 19.57v39.1m0 19.56v39.13m0 19.55v39.1m0 19.57v39.1m0 19.56v39.13m0 19.55v39.1m0 19.57v39.1m0 19.56v39.13m0 19.55v39.1m0 19.57v39.1m0 19.56v39.13m0 19.55v39.1m0 19.57v39.1m0 19.56v39.13m0 19.55v39.1m0 19.57v39.1m0 19.56v39.13m0 19.55v19.56" stroke="#1071e5" stroke-width="4" fill="none"/><path d="M-172-290.7h-3.94v-2.06h3.95zM-172 943.24h-3.94v-2.05h3.95z" stroke="#1071e5" stroke-width=".05" fill="#1071e5"/><path d="M-290.76-388.76a6 6 0 0 1 6-6h221.6a6 6 0 0 1 6 6v88a6 6 0 0 1-6 6h-221.6a6 6 0 0 1-6-6z" stroke="#1071e5" stroke-width="4" fill="#cfe4ff"/><use xlink:href="#d" transform="matrix(1,0,0,1,-290.7612412294475,-394.76269159678725) translate(20.905824652777774 58.24652777777778)"/><use xlink:href="#e" transform="matrix(1,0,0,1,-290.7612412294475,-394.76269159678725) translate(75.99480034722222 58.24652777777778)"/><use xlink:href="#f" transform="matrix(1,0,0,1,-290.7612412294475,-394.76269159678725) translate(145.7430642361111 58.24652777777778)"/><use xlink:href="#g" transform="matrix(1,0,0,1,-290.7612412294475,-394.76269159678725) translate(160.0008767361111 58.24652777777778)"/><path d="M-290.76 951.24a6 6 0 0 1 6-6h221.6a6 6 0 0 1 6 6v88a6 6 0 0 1-6 6h-221.6a6 6 0 0 1-6-6z" stroke="#1071e5" stroke-width="4" fill="#cfe4ff"/><use xlink:href="#h" transform="matrix(1,0,0,1,-290.7612412294475,945.2373084032128) translate(20.905824652777774 58.24652777777778)"/><use xlink:href="#i" transform="matrix(1,0,0,1,-290.7612412294475,945.2373084032128) translate(75.99480034722222 58.24652777777778)"/><use xlink:href="#j" transform="matrix(1,0,0,1,-290.7612412294475,945.2373084032128) translate(145.7430642361111 58.24652777777778)"/><use xlink:href="#k" transform="matrix(1,0,0,1,-290.7612412294475,945.2373084032128) translate(160.0008767361111 58.24652777777778)"/><path d="M62.84-388.76a6 6 0 0 1 6-6H282.6a6 6 0 0 1 6 6v88a6 6 0 0 1-6 6H68.83a6 6 0 0 1-6-6z" stroke="#1071e5" stroke-width="4" fill="#cfe4ff"/><use xlink:href="#l" transform="matrix(1,0,0,1,62.83467890944138,-394.76269159678725) translate(20.82292534722223 58.24652777777778)"/><path d="M62.84 951.24a6 6 0 0 1 6-6H282.6a6 6 0 0 1 6 6v88a6 6 0 0 1-6 6H68.83a6 6 0 0 1-6-6z" stroke="#1071e5" stroke-width="4" fill="#cfe4ff"/><use xlink:href="#m" transform="matrix(1,0,0,1,62.83467890944138,945.2373084032128) translate(20.82292534722223 58.24652777777778)"/><path d="M408.6-388.76a6 6 0 0 1 6-6h153a6 6 0 0 1 6 6v88a6 6 0 0 1-6 6h-153a6 6 0 0 1-6-6z" stroke="#1071e5" stroke-width="4" fill="#cfe4ff"/><use xlink:href="#n" transform="matrix(1,0,0,1,408.59639765944144,-394.76269159678725) translate(20.699444444444445 58.24652777777778)"/><use xlink:href="#o" transform="matrix(1,0,0,1,408.59639765944144,-394.76269159678725) translate(72.72852430555555 58.24652777777778)"/><path d="M408.6 951.24a6 6 0 0 1 6-6h153a6 6 0 0 1 6 6v88a6 6 0 0 1-6 6h-153a6 6 0 0 1-6-6z" stroke="#1071e5" stroke-width="4" fill="#cfe4ff"/><use xlink:href="#p" transform="matrix(1,0,0,1,408.59639765944144,945.2373084032128) translate(20.699444444444445 58.24652777777778)"/><use xlink:href="#q" transform="matrix(1,0,0,1,408.59639765944144,945.2373084032128) translate(72.72852430555555 58.24652777777778)"/><path d="M693.6-388.76a6 6 0 0 1 6-6h218.95a6 6 0 0 1 6 6v88a6 6 0 0 1-6 6H699.6a6 6 0 0 1-6-6z" stroke="#1071e5" stroke-width="4" fill="#cfe4ff"/><use xlink:href="#r" transform="matrix(1,0,0,1,693.6050782149969,-394.76269159678725) translate(20.72960937500003 58.24652777777778)"/><path d="M693.6 951.24a6 6 0 0 1 6-6h218.95a6 6 0 0 1 6 6v88a6 6 0 0 1-6 6H699.6a6 6 0 0 1-6-6z" stroke="#1071e5" stroke-width="4" fill="#cfe4ff"/><use xlink:href="#r" transform="matrix(1,0,0,1,693.6050782149969,945.2373084032128) translate(20.72960937500003 58.24652777777778)"/><path d="M1044.55-388.76a6 6 0 0 1 6-6h210.32a6 6 0 0 1 6 6v88a6 6 0 0 1-6 6h-210.32a6 6 0 0 1-6-6z" stroke="#1071e5" stroke-width="4" fill="#cfe4ff"/><use xlink:href="#s" transform="matrix(1,0,0,1,1044.5534289094412,-394.76269159678725) translate(20.54818576388889 58.24652777777778)"/><use xlink:href="#t" transform="matrix(1,0,0,1,1044.5534289094412,-394.76269159678725) translate(118.475703125 58.24652777777778)"/><path d="M1044.55 951.24a6 6 0 0 1 6-6h210.32a6 6 0 0 1 6 6v88a6 6 0 0 1-6 6h-210.32a6 6 0 0 1-6-6z" stroke="#1071e5" stroke-width="4" fill="#cfe4ff"/><use xlink:href="#s" transform="matrix(1,0,0,1,1044.5534289094412,945.2373084032128) translate(20.54818576388889 58.24652777777778)"/><use xlink:href="#t" transform="matrix(1,0,0,1,1044.5534289094412,945.2373084032128) translate(118.475703125 58.24652777777778)"/><path d="M-171.96-232.96h324.94M-171.9-232.96h-2.06" stroke="#1071e5" stroke-width="4" fill="none"/><path d="M169.24-232.96l-14.26 4.64v-9.27z" stroke="#1071e5" stroke-width="4" fill="#1071e5"/><use xlink:href="#u" transform="matrix(1,0,0,1,-86.13442307888243,-258.4593961588765) translate(0 17.21640914091409)"/><use xlink:href="#v" transform="matrix(1,0,0,1,-86.13442307888243,-258.4593961588765) translate(76.58872332545755 17.21640914091409)"/><use xlink:href="#w" transform="matrix(1,0,0,1,-86.13442307888243,-258.4593961588765) translate(118.33677996705921 17.21640914091409)"/><path d="M177.72-173.15h290.64M177.77-173.15h-2.05" stroke="#1071e5" stroke-width="4" fill="none"/><path d="M484.63-173.15l-14.27 4.64v-9.28z" stroke="#1071e5" stroke-width="4" fill="#1071e5"/><use xlink:href="#x" transform="matrix(1,0,0,1,278.8171956181435,-198.65294454597327) translate(0 17.21640914091409)"/><path d="M493.1-133.28h118v39.87h-97.26M493.15-133.28h-2.05" stroke="#1071e5" stroke-width="4" fill="none"/><path d="M497.57-93.4l14.27-4.64v9.27z" stroke="#1071e5" stroke-width="4" fill="#1071e5"/><use xlink:href="#y" transform="matrix(1,0,0,1,619.1007379372193,-124.09491484557384) translate(0 17.21640914091409)"/><use xlink:href="#z" transform="matrix(1,0,0,1,619.1007379372193,-124.09491484557384) translate(53.67979180730574 17.21640914091409)"/><use xlink:href="#A" transform="matrix(1,0,0,1,619.1007379372193,-124.09491484557384) translate(107.1513206008101 17.21640914091409)"/><path d="M177.72-33.6h608.62M177.77-33.6h-2.05" stroke="#1071e5" stroke-width="4" fill="none"/><path d="M802.6-33.6l-14.26 4.63v-9.27z" stroke="#1071e5" stroke-width="4" fill="#1071e5"/><use xlink:href="#B" transform="matrix(1,0,0,1,402.20649450896997,-59.10455744919908) translate(0 17.21640914091409)"/><use xlink:href="#C" transform="matrix(1,0,0,1,402.20649450896997,-59.10455744919908) translate(45.16704111817432 17.21640914091409)"/><use xlink:href="#D" transform="matrix(1,0,0,1,402.20649450896997,-59.10455744919908) translate(137.29739184855987 17.21640914091409)"/><path d="M173.72 26.2h-324.95M173.66 26.2h2.06" stroke="#1071e5" stroke-width="4" fill="none"/><path d="M-167.5 26.2l14.28-4.63v9.27z" stroke="#1071e5" stroke-width="4" fill="#1071e5"/><use xlink:href="#E" transform="matrix(1,0,0,1,-53.645392925867164,0.7018941637040967) translate(0 17.21640914091409)"/><use xlink:href="#F" transform="matrix(1,0,0,1,-53.645392925867164,0.7018941637040967) translate(67.07804569519453 17.21640914091409)"/><path d="M-223.96 51.24a6 6 0 0 1 6-6h64.82a6 6 0 0 1 6 6v15.52a14.48 14.48 0 0 1-4.25 10.25l-1.5 1.52a14.48 14.48 0 0 1-10.24 4.25h-54.82a6 6 0 0 1-6-6z" fill="#cfe4ff"/><path d="M-147.14 45.24v27.52l-10 10h-66.82" stroke="#1071e5" stroke-width="4" fill="none"/><path d="M-223.96 51.24a6 6 0 0 1 6-6H1199.7a6 6 0 0 1 6 6v468a6 6 0 0 1-6 6H-217.95a6 6 0 0 1-6-6z" stroke="#1071e5" stroke-width="4" fill="none"/><use xlink:href="#G" transform="matrix(1,0,0,1,-215.96328116000305,45.23730840321275) translate(0 27.08376736111111)"/><use xlink:href="#H" transform="matrix(1,0,0,1,-211.96328116000305,90.76508618099052) translate(0 27.08376736111111)"/><use xlink:href="#I" transform="matrix(1,0,0,1,-211.96328116000305,90.76508618099052) translate(67.13324652777777 27.08376736111111)"/><use xlink:href="#J" transform="matrix(1,0,0,1,-211.96328116000305,90.76508618099052) translate(172.33072916666663 27.08376736111111)"/><path d="M177.72 145.82h290.64M177.77 145.82h-2.05" stroke="#1071e5" stroke-width="4" fill="none"/><path d="M484.63 145.82l-14.27 4.63v-9.27z" stroke="#1071e5" stroke-width="4" fill="#1071e5"/><use xlink:href="#K" transform="matrix(1,0,0,1,278.7087252984553,120.3147973895106) translate(0 17.21640914091409)"/><use xlink:href="#L" transform="matrix(1,0,0,1,278.7087252984553,120.3147973895106) translate(78.39366944506949 17.21640914091409)"/><path d="M-213.96 171.24a6 6 0 0 1 6-6h102.4a6 6 0 0 1 6 6v11.2a14.48 14.48 0 0 1-4.25 10.26l-1.53 1.5a14.48 14.48 0 0 1-10.24 4.25h-92.4a6 6 0 0 1-6-6z" fill="#cfe4ff"/><path d="M-99.57 165.24v23.2l-10 10h-104.4" stroke="#1071e5" stroke-width="4" fill="none"/><path d="M-213.96 171.24a6 6 0 0 1 6-6H1189.7a6 6 0 0 1 6 6v328a6 6 0 0 1-6 6H-207.95a6 6 0 0 1-6-6zM-213.96 425.24h20m15 0h20m15 0h20m15 0h20m15 0h20m15 0h20m15 0h20m15 0h20m15 0h20m15 0h20m15 0h20m15 0h20m15 0h20m15 0h20m15 0h20m15 0h20m15 0h20m15 0h20m15 0h20m15 0h20m15 0h20m15 0h20m15 0h20m15 0h20m15 0h20m15 0h20m15 0h20m15 0h20m15 0h20m15 0h20m15 0h20m15 0h20m15 0h20m15 0h20m15 0h20m15 0h20m15 0h20m15 0h20m15 0h20m15 0h20m15 0h9.67" stroke="#1071e5" stroke-width="4" fill="none"/><use xlink:href="#M" transform="matrix(1,0,0,1,-205.96328116000305,165.23730840321275) translate(0 23.464831053417843)"/><use xlink:href="#N" transform="matrix(1,0,0,1,-201.96328116000305,206.45371754412685) translate(0 23.464831053417843)"/><use xlink:href="#O" transform="matrix(1,0,0,1,-201.96328116000305,206.45371754412685) translate(48.0914009369687 23.464831053417843)"/><use xlink:href="#P" transform="matrix(1,0,0,1,-201.96328116000305,206.45371754412685) translate(104.93852607917043 23.464831053417843)"/><use xlink:href="#Q" transform="matrix(1,0,0,1,-201.96328116000305,433.23730840321275) translate(0 23.464831053417843)"/><use xlink:href="#R" transform="matrix(1,0,0,1,-201.96328116000305,433.23730840321275) translate(35.52619910428543 23.464831053417843)"/><path d="M177.72 285.37h955.25M177.77 285.37h-2.05" stroke="#1071e5" stroke-width="4" fill="none"/><path d="M1149.24 285.37l-14.27 4.63v-9.27z" stroke="#1071e5" stroke-width="4" fill="#1071e5"/><use xlink:href="#S" transform="matrix(1,0,0,1,601.4327716288694,259.86318448628475) translate(0 17.21640914091409)"/><use xlink:href="#T" transform="matrix(1,0,0,1,601.4327716288694,259.86318448628475) translate(59.467768065869095 17.21640914091409)"/><path d="M1153.7 345.17H-151.2M1153.66 345.17h2.05" stroke="#1071e5" stroke-width="4" fill="none"/><path d="M-167.5 345.17l14.28-4.63v9.27z" stroke="#1071e5" stroke-width="4" fill="#1071e5"/><use xlink:href="#U" transform="matrix(1,0,0,1,388.9151116597475,319.669636099188) translate(0 17.21640914091409)"/><use xlink:href="#V" transform="matrix(1,0,0,1,388.9151116597475,319.669636099188) translate(81.58703565669069 17.21640914091409)"/><use xlink:href="#W" transform="matrix(1,0,0,1,388.9151116597475,319.669636099188) translate(103.93192151246376 17.21640914091409)"/><use xlink:href="#X" transform="matrix(1,0,0,1,388.9151116597475,319.669636099188) translate(172.91036720859586 17.21640914091409)"/><path d="M1153.7 404.98H198.46M1153.66 404.98h2.05" stroke="#1071e5" stroke-width="4" fill="none"/><path d="M182.2 404.98l14.25-4.64v9.27z" stroke="#1071e5" stroke-width="4" fill="#1071e5"/><g><use xlink:href="#Y" transform="matrix(1,0,0,1,640.7293990455174,379.4760877120914) translate(0 17.21640914091409)"/></g><path d="M489.1 484.72H198.45M489.05 484.72h2.05" stroke="#1071e5" stroke-width="4" fill="none"/><path d="M182.2 484.72l14.25-4.63v9.26z" stroke="#1071e5" stroke-width="4" fill="#1071e5"/><g><use xlink:href="#Z" transform="matrix(1,0,0,1,288.102254983455,459.21802319596225) translate(0 17.21640914091409)"/><use xlink:href="#L" transform="matrix(1,0,0,1,288.102254983455,459.21802319596225) translate(59.60661007507001 17.21640914091409)"/></g><path d="M-213.96 551.24a6 6 0 0 1 6-6h102.4a6 6 0 0 1 6 6v11.2a14.48 14.48 0 0 1-4.25 10.26l-1.53 1.5a14.48 14.48 0 0 1-10.24 4.25h-92.4a6 6 0 0 1-6-6z" fill="#cfe4ff"/><path d="M-99.57 545.24v23.2l-10 10h-104.4" stroke="#1071e5" stroke-width="4" fill="none"/><path d="M-213.96 551.24a6 6 0 0 1 6-6h417.68a6 6 0 0 1 6 6v128a6 6 0 0 1-6 6h-417.68a6 6 0 0 1-6-6z" stroke="#1071e5" stroke-width="4" fill="none"/><g><use xlink:href="#aa" transform="matrix(1,0,0,1,-205.96328116000305,545.2373084032128) translate(0 23.464831053417843)"/></g><g><use xlink:href="#ab" transform="matrix(1,0,0,1,-201.96328116000305,586.4537175441269) translate(0 23.464831053417843)"/><use xlink:href="#ac" transform="matrix(1,0,0,1,-201.96328116000305,586.4537175441269) translate(77.8469790338409 23.464831053417843)"/></g><path d="M173.72 664.14h-324.95M173.66 664.14h2.06" stroke="#1071e5" stroke-width="4" fill="none"/><path d="M-167.5 664.14l14.28-4.63v9.28z" stroke="#1071e5" stroke-width="4" fill="#1071e5"/><g><use xlink:href="#ad" transform="matrix(1,0,0,1,-96.76451440832793,638.6373780346719) translate(0 17.21640914091409)"/><use xlink:href="#ae" transform="matrix(1,0,0,1,-96.76451440832793,638.6373780346719) translate(74.0027909040904 17.21640914091409)"/><use xlink:href="#af" transform="matrix(1,0,0,1,-96.76451440832793,638.6373780346719) translate(143.5366046370262 17.21640914091409)"/></g><path d="M195.72 705.24H606.2l12 12v48H195.7z" stroke="#1071e5" stroke-width="4" fill="#cfe4ff"/><path d="M606.2 707.14v10.1h10.1" stroke="#1071e5" stroke-width="4" fill="#cfe4ff"/><g><use xlink:href="#ag" transform="matrix(1,0,0,1,200.71553828444144,710.2373084032128) translate(15.261935763888857 33.24652777777778)"/><use xlink:href="#ah" transform="matrix(1,0,0,1,200.71553828444144,710.2373084032128) translate(69.61306423611109 33.24652777777778)"/><use xlink:href="#ai" transform="matrix(1,0,0,1,200.71553828444144,710.2373084032128) translate(194.7649739583333 33.24652777777778)"/><use xlink:href="#aj" transform="matrix(1,0,0,1,200.71553828444144,710.2373084032128) translate(258.0245225694444 33.24652777777778)"/><use xlink:href="#ak" transform="matrix(1,0,0,1,200.71553828444144,710.2373084032128) translate(324.95160590277777 33.24652777777778)"/></g><path d="M806.47 785.24h305.24l24 24v96H806.48z" stroke="#1071e5" stroke-width="4" fill="#cfe4ff"/><path d="M1111.7 787.14v22.1h22.1" stroke="#1071e5" stroke-width="4" fill="#cfe4ff"/><g><use xlink:href="#al" transform="matrix(1,0,0,1,811.4729167566634,790.2373084032128) translate(96.06119791666667 22.81684027777778)"/><use xlink:href="#am" transform="matrix(1,0,0,1,811.4729167566634,790.2373084032128) translate(78.34852430555556 49.704861111111114)"/><use xlink:href="#an" transform="matrix(1,0,0,1,811.4729167566634,790.2373084032128) translate(94.81987847222223 49.704861111111114)"/><use xlink:href="#am" transform="matrix(1,0,0,1,811.4729167566634,790.2373084032128) translate(15.381944444444429 76.59288194444446)"/><use xlink:href="#ao" transform="matrix(1,0,0,1,811.4729167566634,790.2373084032128) translate(31.853298611111093 76.59288194444446)"/><use xlink:href="#am" transform="matrix(1,0,0,1,811.4729167566634,790.2373084032128) translate(70.83984375 103.48090277777777)"/><use xlink:href="#ap" transform="matrix(1,0,0,1,811.4729167566634,790.2373084032128) translate(87.31119791666666 103.48090277777777)"/></g><path d="M307.2-428.76a6 6 0 0 1 6-6h349.7a6 6 0 0 1 6 6v9.52a6 6 0 0 1-6 6H313.2a6 6 0 0 1-6-6z" fill="none"/><g><use xlink:href="#aq" transform="matrix(1,0,0,1,307.20859383999687,-434.76269159678725) translate(0.15690104166668561 21.52777777777778)"/><use xlink:href="#ar" transform="matrix(1,0,0,1,307.20859383999687,-434.76269159678725) translate(97.93250868055557 21.52777777777778)"/><use xlink:href="#as" transform="matrix(1,0,0,1,307.20859383999687,-434.76269159678725) translate(252.826171875 21.52777777777778)"/></g><defs><path fill="#fff" d="M180 0v-1490h510c348 0 508 194 508 460 0 198-88 351-276 417L1256 0h-220L726-579c-117 2-238 0-356 1V0H180zm190-747h312c235 0 327-108 327-283 0-177-92-293-329-293H370v576" id="at"/><path fill="#fff" d="M645 0H180v-1490h484c435 0 692 280 692 742 0 466-257 748-711 748zM370-168h263c363 0 539-218 539-580 0-358-176-574-521-574H370v1154" id="au"/><path fill="#fff" d="M180 0v-1490h901v168H370v510h643v168H370V0H180" id="av"/><path fill="#fff" d="M798-719v166H144v-166h654" id="aw"/><path fill="#fff" d="M458 0L52-1490h194c108 439 233 855 324 1313 92-459 221-873 331-1313h216c110 438 234 854 330 1307 92-455 216-869 323-1307h196L1558 0h-221l-256-944c-26-95-50-200-73-331-22 122-44 223-73 331L680 0H458" id="ax"/><path fill="#fff" d="M783 20c-382 0-661-292-661-764 0-473 279-766 661-766 302 0 548 182 601 489h-190c-42-204-217-313-411-313-268 0-476 208-476 590 0 381 209 588 476 588 195 0 369-110 411-313h190c-52 303-296 489-601 489" id="ay"/><g id="a"><use transform="matrix(0.008173828125000001,0,0,0.008173828125000001,0,0)" xlink:href="#at"/><use transform="matrix(0.008173828125000001,0,0,0.008173828125000001,10.773105468750002,0)" xlink:href="#au"/><use transform="matrix(0.008173828125000001,0,0,0.008173828125000001,22.854023437500004,0)" xlink:href="#av"/><use transform="matrix(0.008173828125000001,0,0,0.008173828125000001,32.736181640625006,0)" xlink:href="#aw"/><use transform="matrix(0.008173828125000001,0,0,0.008173828125000001,39.585849609375,0)" xlink:href="#ax"/><use transform="matrix(0.008173828125000001,0,0,0.008173828125000001,56.08063476562501,0)" xlink:href="#ay"/></g><path fill="#fff" d="M784 20c-382 0-662-292-662-764 0-473 280-766 662-766s660 293 660 766c0 472-278 764-660 764zm0-176c266 0 475-207 475-588 0-383-209-590-475-590-268 0-477 208-477 590 0 380 209 588 477 588" id="az"/><path fill="#fff" d="M158 0v-1118h174v172h12c41-113 157-188 290-188 26 0 70 2 91 3v181c-11-2-60-10-108-10-161 0-279 109-279 260V0H158" id="aA"/><path fill="#fff" d="M613 24c-304 0-509-231-509-576 0-350 205-580 509-580 216 0 392 114 453 309l-173 49c-33-115-133-197-280-197-223 0-326 196-326 419 0 220 103 415 326 415 150 0 252-85 285-206l172 49C1010-95 832 24 613 24" id="aB"/><path fill="#fff" d="M338-670V0H158v-1490h180v566c73-149 190-208 336-208 226 0 379 139 379 422V0H872v-695c0-172-96-275-252-275-161 0-282 109-282 300" id="aC"/><path fill="#fff" d="M628 24c-324 0-524-230-524-574 0-343 198-582 503-582 237 0 487 146 487 559v75H286c9 234 145 362 343 362 132 0 231-58 273-172l174 48C1024-91 857 24 628 24zM287-650h624c-17-190-120-322-304-322-192 0-309 151-320 322" id="aD"/><path fill="#fff" d="M538 24C308 24 148-78 108-271l171-41c32 123 123 178 257 178 156 0 256-77 256-169 0-77-54-128-164-154l-186-44c-203-48-300-148-300-305 0-192 176-326 414-326 230 0 351 112 402 269l-163 42c-31-80-94-158-238-158-133 0-233 69-233 162 0 83 57 129 188 160l169 40c203 48 298 149 298 302 0 196-179 339-441 339" id="aE"/><path fill="#fff" d="M598-1118v154H368v674c0 100 37 144 132 144 23 0 62-6 92-12L629-6c-37 13-88 20-134 20-193 0-307-107-307-290v-688H20v-154h168v-266h180v266h230" id="aF"/><path fill="#fff" d="M471 26C259 26 90-98 90-318c0-256 228-303 435-329 202-27 287-16 287-108 0-139-79-219-234-219-161 0-248 86-283 164l-173-57c86-203 278-265 451-265 150 0 419 46 419 395V0H815v-152h-12C765-73 660 26 471 26zm31-159c199 0 310-134 310-271v-155c-30 35-226 55-295 64-131 17-246 59-246 186 0 116 97 176 231 176" id="aG"/><path fill="#fff" d="M158 0v-1118h180V0H158zm91-1301c-68 0-125-53-125-119s57-119 125-119c69 0 126 53 126 119s-57 119-126 119" id="aH"/><path fill="#fff" d="M613 24c-304 0-509-231-509-576 0-350 205-580 509-580 305 0 511 230 511 580 0 345-206 576-511 576zm0-161c226 0 329-195 329-415 0-222-103-419-329-419-223 0-326 196-326 419 0 220 103 415 326 415" id="aI"/><path fill="#fff" d="M338-670V0H158v-1118h173l1 207c72-158 192-221 342-221 226 0 378 139 378 422V0H872v-695c0-172-96-275-252-275-161 0-282 109-282 300" id="aJ"/><g id="b"><use transform="matrix(0.008173828125000001,0,0,0.008173828125000001,0,0)" xlink:href="#az"/><use transform="matrix(0.008173828125000001,0,0,0.008173828125000001,12.800214843750002,0)" xlink:href="#aA"/><use transform="matrix(0.008173828125000001,0,0,0.008173828125000001,18.824326171875,0)" xlink:href="#aB"/><use transform="matrix(0.008173828125000001,0,0,0.008173828125000001,28.387705078125002,0)" xlink:href="#aC"/><use transform="matrix(0.008173828125000001,0,0,0.008173828125000001,38.2862109375,0)" xlink:href="#aD"/><use transform="matrix(0.008173828125000001,0,0,0.008173828125000001,48.04576171875,0)" xlink:href="#aE"/><use transform="matrix(0.008173828125000001,0,0,0.008173828125000001,56.881669921875,0)" xlink:href="#aF"/><use transform="matrix(0.008173828125000001,0,0,0.008173828125000001,62.358134765625,0)" xlink:href="#aA"/><use transform="matrix(0.008173828125000001,0,0,0.008173828125000001,68.66015625,0)" xlink:href="#aG"/><use transform="matrix(0.008173828125000001,0,0,0.008173828125000001,78.06005859375,0)" xlink:href="#aF"/><use transform="matrix(0.008173828125000001,0,0,0.008173828125000001,83.5365234375,0)" xlink:href="#aH"/><use transform="matrix(0.008173828125000001,0,0,0.008173828125000001,87.5907421875,0)" xlink:href="#aI"/><use transform="matrix(0.008173828125000001,0,0,0.008173828125000001,97.628203125,0)" xlink:href="#aJ"/></g><path fill="#fff" d="M657 26c-323 0-524-166-541-416h195c15 169 171 246 346 246 202 0 356-106 356-265 5-203-294-238-475-293-239-73-380-191-380-389 0-252 224-419 512-419 294 0 499 171 508 396H992c-17-145-151-228-328-228-193 0-321 102-321 242 0 156 175 211 284 241l149 41c160 44 422 134 422 412 0 244-197 432-541 432" id="aK"/><path fill="#fff" d="M1096 418H916v-591h-14C865-111 790 24 577 24c-279 0-473-224-473-580 0-354 195-576 474-576 218 0 287 134 324 193h20v-179h174V418zM604-137c203 0 314-172 314-421 0-247-108-413-314-413-212 0-317 181-317 413 0 235 108 421 317 421" id="aL"/><path fill="#fff" d="M537 14c-226 0-379-139-379-422v-710h180v695c0 172 97 275 253 275 160 0 281-109 281-300v-670h181V0H879v-209C806-46 684 14 537 14" id="aM"/><g id="c"><use transform="matrix(0.008173828125000001,0,0,0.008173828125000001,0,0)" xlink:href="#aK"/><use transform="matrix(0.008173828125000001,0,0,0.008173828125000001,10.740410156250002,0)" xlink:href="#aD"/><use transform="matrix(0.008173828125000001,0,0,0.008173828125000001,20.499960937500003,0)" xlink:href="#aL"/><use transform="matrix(0.008173828125000001,0,0,0.008173828125000001,30.749941406250002,0)" xlink:href="#aM"/><use transform="matrix(0.008173828125000001,0,0,0.008173828125000001,40.648447265625,0)" xlink:href="#aD"/><use transform="matrix(0.008173828125000001,0,0,0.008173828125000001,50.407998046875,0)" xlink:href="#aJ"/><use transform="matrix(0.008173828125000001,0,0,0.008173828125000001,60.298330078125005,0)" xlink:href="#aB"/><use transform="matrix(0.008173828125000001,0,0,0.008173828125000001,69.86170898437501,0)" xlink:href="#aD"/></g><path fill="#333" d="M180 0v-1490h190v644h782v-644h190V0h-190v-678H370V0H180" id="aN"/><path fill="#333" d="M613 24c-304 0-509-231-509-576 0-350 205-580 509-580 305 0 511 230 511 580 0 345-206 576-511 576zm0-161c226 0 329-195 329-415 0-222-103-419-329-419-223 0-326 196-326 419 0 220 103 415 326 415" id="aO"/><path fill="#333" d="M538 24C308 24 148-78 108-271l171-41c32 123 123 178 257 178 156 0 256-77 256-169 0-77-54-128-164-154l-186-44c-203-48-300-148-300-305 0-192 176-326 414-326 230 0 351 112 402 269l-163 42c-31-80-94-158-238-158-133 0-233 69-233 162 0 83 57 129 188 160l169 40c203 48 298 149 298 302 0 196-179 339-441 339" id="aP"/><path fill="#333" d="M598-1118v154H368v674c0 100 37 144 132 144 23 0 62-6 92-12L629-6c-37 13-88 20-134 20-193 0-307-107-307-290v-688H20v-154h168v-266h180v266h230" id="aQ"/><g id="d"><use transform="matrix(0.010850694444444444,0,0,0.010850694444444444,0,0)" xlink:href="#aN"/><use transform="matrix(0.010850694444444444,0,0,0.010850694444444444,16.514756944444443,0)" xlink:href="#aO"/><use transform="matrix(0.010850694444444444,0,0,0.010850694444444444,29.83940972222222,0)" xlink:href="#aP"/><use transform="matrix(0.010850694444444444,0,0,0.010850694444444444,41.569010416666664,0)" xlink:href="#aQ"/></g><path fill="#333" d="M98-1322v-168h1126v168H757V0H567v-1322H98" id="aR"/><path fill="#333" d="M180 0v-1490h270l367 940c28 72 75 218 110 339 35-117 81-264 110-339l362-940h271V0h-187c2-448-5-837 7-1287-157 497-311 829-483 1287H842C666-458 514-784 354-1284c12 438 5 843 7 1284H180" id="aS"/><path fill="#333" d="M180 0v-1490h190v1322h690V0H180" id="aT"/><g id="e"><use transform="matrix(0.010850694444444444,0,0,0.010850694444444444,0,0)" xlink:href="#aN"/><use transform="matrix(0.010850694444444444,0,0,0.010850694444444444,16.514756944444443,0)" xlink:href="#aR"/><use transform="matrix(0.010850694444444444,0,0,0.010850694444444444,30.859375,0)" xlink:href="#aS"/><use transform="matrix(0.010850694444444444,0,0,0.010850694444444444,50.93315972222222,0)" xlink:href="#aT"/></g><path fill="#333" d="M692-1560L212 224H46l480-1784h166" id="aU"/><use transform="matrix(0.010850694444444444,0,0,0.010850694444444444,0,0)" xlink:href="#aU" id="f"/><path fill="#333" d="M645 0H180v-1490h484c435 0 692 280 692 742 0 466-257 748-711 748zM370-168h263c363 0 539-218 539-580 0-358-176-574-521-574H370v1154" id="aV"/><path fill="#333" d="M784 20c-382 0-662-292-662-764 0-473 280-766 662-766s660 293 660 766c0 472-278 764-660 764zm0-176c266 0 475-207 475-588 0-383-209-590-475-590-268 0-477 208-477 590 0 380 209 588 477 588" id="aW"/><g id="g"><use transform="matrix(0.010850694444444444,0,0,0.010850694444444444,0,0)" xlink:href="#aV"/><use transform="matrix(0.010850694444444444,0,0,0.010850694444444444,16.03732638888889,0)" xlink:href="#aW"/><use transform="matrix(0.010850694444444444,0,0,0.010850694444444444,33.029513888888886,0)" xlink:href="#aS"/></g><g id="h"><use transform="matrix(0.010850694444444444,0,0,0.010850694444444444,0,0)" xlink:href="#aN"/><use transform="matrix(0.010850694444444444,0,0,0.010850694444444444,16.514756944444443,0)" xlink:href="#aO"/><use transform="matrix(0.010850694444444444,0,0,0.010850694444444444,29.83940972222222,0)" xlink:href="#aP"/><use transform="matrix(0.010850694444444444,0,0,0.010850694444444444,41.569010416666664,0)" xlink:href="#aQ"/></g><g id="i"><use transform="matrix(0.010850694444444444,0,0,0.010850694444444444,0,0)" xlink:href="#aN"/><use transform="matrix(0.010850694444444444,0,0,0.010850694444444444,16.514756944444443,0)" xlink:href="#aR"/><use transform="matrix(0.010850694444444444,0,0,0.010850694444444444,30.859375,0)" xlink:href="#aS"/><use transform="matrix(0.010850694444444444,0,0,0.010850694444444444,50.93315972222222,0)" xlink:href="#aT"/></g><use transform="matrix(0.010850694444444444,0,0,0.010850694444444444,0,0)" xlink:href="#aU" id="j"/><g id="k"><use transform="matrix(0.010850694444444444,0,0,0.010850694444444444,0,0)" xlink:href="#aV"/><use transform="matrix(0.010850694444444444,0,0,0.010850694444444444,16.03732638888889,0)" xlink:href="#aW"/><use transform="matrix(0.010850694444444444,0,0,0.010850694444444444,33.029513888888886,0)" xlink:href="#aS"/></g><path fill="#333" d="M338-1490V0H158v-1490h180" id="aX"/><path fill="#333" d="M158 0v-1118h180V0H158zm91-1301c-68 0-125-53-125-119s57-119 125-119c69 0 126 53 126 119s-57 119-126 119" id="aY"/><path fill="#333" d="M338-670V0H158v-1118h173l1 207c72-158 192-221 342-221 226 0 378 139 378 422V0H872v-695c0-172-96-275-252-275-161 0-282 109-282 300" id="aZ"/><path fill="#333" d="M158 0v-1490h180v865h22l478-493h223L593-638 1096 0H865L456-523 338-412V0H158" id="ba"/><path fill="#333" d="M798-719v166H144v-166h654" id="bb"/><path fill="#333" d="M158 0v-1118h174v172h12c41-113 157-188 290-188 26 0 70 2 91 3v181c-11-2-60-10-108-10-161 0-279 109-279 260V0H158" id="bc"/><path fill="#333" d="M613 24c-304 0-509-231-509-576 0-350 205-580 509-580 216 0 392 114 453 309l-173 49c-33-115-133-197-280-197-223 0-326 196-326 419 0 220 103 415 326 415 150 0 252-85 285-206l172 49C1010-95 832 24 613 24" id="bd"/><path fill="#333" d="M338-670V0H158v-1490h180v566c73-149 190-208 336-208 226 0 379 139 379 422V0H872v-695c0-172-96-275-252-275-161 0-282 109-282 300" id="be"/><path fill="#333" d="M628 24c-324 0-524-230-524-574 0-343 198-582 503-582 237 0 487 146 487 559v75H286c9 234 145 362 343 362 132 0 231-58 273-172l174 48C1024-91 857 24 628 24zM287-650h624c-17-190-120-322-304-322-192 0-309 151-320 322" id="bf"/><path fill="#333" d="M471 26C259 26 90-98 90-318c0-256 228-303 435-329 202-27 287-16 287-108 0-139-79-219-234-219-161 0-248 86-283 164l-173-57c86-203 278-265 451-265 150 0 419 46 419 395V0H815v-152h-12C765-73 660 26 471 26zm31-159c199 0 310-134 310-271v-155c-30 35-226 55-295 64-131 17-246 59-246 186 0 116 97 176 231 176" id="bg"/><g id="l"><use transform="matrix(0.010850694444444444,0,0,0.010850694444444444,0,0)" xlink:href="#aX"/><use transform="matrix(0.010850694444444444,0,0,0.010850694444444444,5.381944444444445,0)" xlink:href="#aY"/><use transform="matrix(0.010850694444444444,0,0,0.010850694444444444,10.76388888888889,0)" xlink:href="#aZ"/><use transform="matrix(0.010850694444444444,0,0,0.010850694444444444,23.893229166666664,0)" xlink:href="#ba"/><use transform="matrix(0.010850694444444444,0,0,0.010850694444444444,35.080295138888886,0)" xlink:href="#bb"/><use transform="matrix(0.010850694444444444,0,0,0.010850694444444444,45.30164930555556,0)" xlink:href="#aO"/><use transform="matrix(0.010850694444444444,0,0,0.010850694444444444,58.62630208333333,0)" xlink:href="#bc"/><use transform="matrix(0.010850694444444444,0,0,0.010850694444444444,66.62326388888889,0)" xlink:href="#bd"/><use transform="matrix(0.010850694444444444,0,0,0.010850694444444444,79.31857638888889,0)" xlink:href="#be"/><use transform="matrix(0.010850694444444444,0,0,0.010850694444444444,92.45876736111111,0)" xlink:href="#bf"/><use transform="matrix(0.010850694444444444,0,0,0.010850694444444444,105.4144965277778,0)" xlink:href="#aP"/><use transform="matrix(0.010850694444444444,0,0,0.010850694444444444,117.14409722222224,0)" xlink:href="#aQ"/><use transform="matrix(0.010850694444444444,0,0,0.010850694444444444,124.4140625,0)" xlink:href="#bc"/><use transform="matrix(0.010850694444444444,0,0,0.010850694444444444,132.77994791666666,0)" xlink:href="#bg"/><use transform="matrix(0.010850694444444444,0,0,0.010850694444444444,145.25824652777777,0)" xlink:href="#aQ"/><use transform="matrix(0.010850694444444444,0,0,0.010850694444444444,152.52821180555554,0)" xlink:href="#aY"/><use transform="matrix(0.010850694444444444,0,0,0.010850694444444444,157.91015625,0)" xlink:href="#aO"/><use transform="matrix(0.010850694444444444,0,0,0.010850694444444444,171.23480902777777,0)" xlink:href="#aZ"/></g><g id="m"><use transform="matrix(0.010850694444444444,0,0,0.010850694444444444,0,0)" xlink:href="#aX"/><use transform="matrix(0.010850694444444444,0,0,0.010850694444444444,5.381944444444445,0)" xlink:href="#aY"/><use transform="matrix(0.010850694444444444,0,0,0.010850694444444444,10.76388888888889,0)" xlink:href="#aZ"/><use transform="matrix(0.010850694444444444,0,0,0.010850694444444444,23.893229166666664,0)" xlink:href="#ba"/><use transform="matrix(0.010850694444444444,0,0,0.010850694444444444,35.080295138888886,0)" xlink:href="#bb"/><use transform="matrix(0.010850694444444444,0,0,0.010850694444444444,45.30164930555556,0)" xlink:href="#aO"/><use transform="matrix(0.010850694444444444,0,0,0.010850694444444444,58.62630208333333,0)" xlink:href="#bc"/><use transform="matrix(0.010850694444444444,0,0,0.010850694444444444,66.62326388888889,0)" xlink:href="#bd"/><use transform="matrix(0.010850694444444444,0,0,0.010850694444444444,79.31857638888889,0)" xlink:href="#be"/><use transform="matrix(0.010850694444444444,0,0,0.010850694444444444,92.45876736111111,0)" xlink:href="#bf"/><use transform="matrix(0.010850694444444444,0,0,0.010850694444444444,105.4144965277778,0)" xlink:href="#aP"/><use transform="matrix(0.010850694444444444,0,0,0.010850694444444444,117.14409722222224,0)" xlink:href="#aQ"/><use transform="matrix(0.010850694444444444,0,0,0.010850694444444444,124.4140625,0)" xlink:href="#bc"/><use transform="matrix(0.010850694444444444,0,0,0.010850694444444444,132.77994791666666,0)" xlink:href="#bg"/><use transform="matrix(0.010850694444444444,0,0,0.010850694444444444,145.25824652777777,0)" xlink:href="#aQ"/><use transform="matrix(0.010850694444444444,0,0,0.010850694444444444,152.52821180555554,0)" xlink:href="#aY"/><use transform="matrix(0.010850694444444444,0,0,0.010850694444444444,157.91015625,0)" xlink:href="#aO"/><use transform="matrix(0.010850694444444444,0,0,0.010850694444444444,171.23480902777777,0)" xlink:href="#aZ"/></g><path fill="#333" d="M180 0v-1490h510c348 0 508 194 508 460 0 198-88 351-276 417L1256 0h-220L726-579c-117 2-238 0-356 1V0H180zm190-747h312c235 0 327-108 327-283 0-177-92-293-329-293H370v576" id="bh"/><path fill="#333" d="M537 14c-226 0-379-139-379-422v-710h180v695c0 172 97 275 253 275 160 0 281-109 281-300v-670h181V0H879v-209C806-46 684 14 537 14" id="bi"/><g id="n"><use transform="matrix(0.010850694444444444,0,0,0.010850694444444444,0,0)" xlink:href="#bh"/><use transform="matrix(0.010850694444444444,0,0,0.010850694444444444,14.301215277777777,0)" xlink:href="#bi"/><use transform="matrix(0.010850694444444444,0,0,0.010850694444444444,27.44140625,0)" xlink:href="#aX"/><use transform="matrix(0.010850694444444444,0,0,0.010850694444444444,32.82335069444444,0)" xlink:href="#bf"/></g><path fill="#333" d="M180 0v-1490h908v168H370v486h669v168H370v500h727V0H180" id="bj"/><path fill="#333" d="M611 442c-248 0-391-105-460-228l146-94c47 65 117 165 314 165 178 0 307-82 307-266v-224h-17C863-141 792-18 576-18c-268 0-472-195-472-546 0-346 197-568 476-568 216 0 288 133 326 193h17v-179h175V29c0 289-215 413-487 413zm-5-620c203 0 314-146 314-390 0-237-108-403-314-403-213 0-319 180-319 403 0 230 109 390 319 390" id="bk"/><g id="o"><use transform="matrix(0.010850694444444444,0,0,0.010850694444444444,0,0)" xlink:href="#bj"/><use transform="matrix(0.010850694444444444,0,0,0.010850694444444444,13.35720486111111,0)" xlink:href="#aZ"/><use transform="matrix(0.010850694444444444,0,0,0.010850694444444444,26.48654513888889,0)" xlink:href="#bk"/><use transform="matrix(0.010850694444444444,0,0,0.010850694444444444,40.11501736111111,0)" xlink:href="#aY"/><use transform="matrix(0.010850694444444444,0,0,0.010850694444444444,45.49696180555556,0)" xlink:href="#aZ"/><use transform="matrix(0.010850694444444444,0,0,0.010850694444444444,58.62630208333333,0)" xlink:href="#bf"/></g><g id="p"><use transform="matrix(0.010850694444444444,0,0,0.010850694444444444,0,0)" xlink:href="#bh"/><use transform="matrix(0.010850694444444444,0,0,0.010850694444444444,14.301215277777777,0)" xlink:href="#bi"/><use transform="matrix(0.010850694444444444,0,0,0.010850694444444444,27.44140625,0)" xlink:href="#aX"/><use transform="matrix(0.010850694444444444,0,0,0.010850694444444444,32.82335069444444,0)" xlink:href="#bf"/></g><g id="q"><use transform="matrix(0.010850694444444444,0,0,0.010850694444444444,0,0)" xlink:href="#bj"/><use transform="matrix(0.010850694444444444,0,0,0.010850694444444444,13.35720486111111,0)" xlink:href="#aZ"/><use transform="matrix(0.010850694444444444,0,0,0.010850694444444444,26.48654513888889,0)" xlink:href="#bk"/><use transform="matrix(0.010850694444444444,0,0,0.010850694444444444,40.11501736111111,0)" xlink:href="#aY"/><use transform="matrix(0.010850694444444444,0,0,0.010850694444444444,45.49696180555556,0)" xlink:href="#aZ"/><use transform="matrix(0.010850694444444444,0,0,0.010850694444444444,58.62630208333333,0)" xlink:href="#bf"/></g><path fill="#333" d="M677 24c-213 0-288-135-325-197h-20V0H158v-1490h180v551h14c37-59 106-193 324-193 279 0 474 222 474 576 0 356-194 580-473 580zm-27-161c209 0 317-186 317-421 0-232-105-413-317-413-206 0-314 166-314 413 0 249 111 421 314 421" id="bl"/><path fill="#333" d="M481 0L54-1118h197c107 314 236 620 325 951 87-331 217-637 324-951h197L670 0H481" id="bm"/><g id="r"><use transform="matrix(0.010850694444444444,0,0,0.010850694444444444,0,0)" xlink:href="#aS"/><use transform="matrix(0.010850694444444444,0,0,0.010850694444444444,20.07378472222222,0)" xlink:href="#bi"/><use transform="matrix(0.010850694444444444,0,0,0.010850694444444444,33.21397569444444,0)" xlink:href="#aQ"/><use transform="matrix(0.010850694444444444,0,0,0.010850694444444444,40.592447916666664,0)" xlink:href="#bg"/><use transform="matrix(0.010850694444444444,0,0,0.010850694444444444,53.07074652777778,0)" xlink:href="#aQ"/><use transform="matrix(0.010850694444444444,0,0,0.010850694444444444,60.34071180555555,0)" xlink:href="#aY"/><use transform="matrix(0.010850694444444444,0,0,0.010850694444444444,65.72265625,0)" xlink:href="#aO"/><use transform="matrix(0.010850694444444444,0,0,0.010850694444444444,79.04730902777777,0)" xlink:href="#aZ"/><use transform="matrix(0.010850694444444444,0,0,0.010850694444444444,92.17664930555556,0)" xlink:href="#aW"/><use transform="matrix(0.010850694444444444,0,0,0.010850694444444444,109.16883680555556,0)" xlink:href="#bl"/><use transform="matrix(0.010850694444444444,0,0,0.010850694444444444,122.77560763888887,0)" xlink:href="#aP"/><use transform="matrix(0.010850694444444444,0,0,0.010850694444444444,134.50520833333331,0)" xlink:href="#bf"/><use transform="matrix(0.010850694444444444,0,0,0.010850694444444444,147.46093749999997,0)" xlink:href="#bc"/><use transform="matrix(0.010850694444444444,0,0,0.010850694444444444,156.17404513888886,0)" xlink:href="#bm"/><use transform="matrix(0.010850694444444444,0,0,0.010850694444444444,168.22916666666663,0)" xlink:href="#bf"/><use transform="matrix(0.010850694444444444,0,0,0.010850694444444444,181.1848958333333,0)" xlink:href="#bc"/></g><path fill="#333" d="M140 405l46-156c120 36 205 19 263-150l32-93L54-1118h197c107 313 237 620 324 950 87-331 219-637 326-950h196L606 167c-68 178-176 259-334 259-64 0-113-12-132-21" id="bn"/><path fill="#333" d="M158 0v-1118h175l1 205c55-151 181-225 313-225 147 0 245 90 285 228 53-141 190-228 352-228 194 0 352 125 352 384V0h-181v-749c0-161-105-225-225-225-151 0-243 103-243 244V0H807v-767c0-124-93-207-219-207-131 0-250 92-250 270V0H158" id="bo"/><g id="s"><use transform="matrix(0.010850694444444444,0,0,0.010850694444444444,0,0)" xlink:href="#aV"/><use transform="matrix(0.010850694444444444,0,0,0.010850694444444444,16.03732638888889,0)" xlink:href="#bn"/><use transform="matrix(0.010850694444444444,0,0,0.010850694444444444,28.526475694444443,0)" xlink:href="#aZ"/><use transform="matrix(0.010850694444444444,0,0,0.010850694444444444,41.65581597222222,0)" xlink:href="#bg"/><use transform="matrix(0.010850694444444444,0,0,0.010850694444444444,54.13411458333333,0)" xlink:href="#bo"/><use transform="matrix(0.010850694444444444,0,0,0.010850694444444444,73.60026041666666,0)" xlink:href="#aY"/><use transform="matrix(0.010850694444444444,0,0,0.010850694444444444,78.9822048611111,0)" xlink:href="#bd"/></g><path fill="#333" d="M180 0v-1490h510c348 0 508 209 508 474 0 266-160 477-507 477H370V0H180zm190-706h312c236 0 327-133 327-310 0-176-91-307-329-307H370v617" id="bp"/><path fill="#333" d="M158 418v-1536h174v179h20c37-59 106-193 324-193 279 0 474 222 474 576 0 356-194 580-473 580-213 0-288-135-325-197h-14v591H158zm492-555c209 0 317-186 317-421 0-232-105-413-317-413-206 0-314 166-314 413 0 249 111 421 314 421" id="bq"/><g id="t"><use transform="matrix(0.010850694444444444,0,0,0.010850694444444444,0,0)" xlink:href="#bp"/><use transform="matrix(0.010850694444444444,0,0,0.010850694444444444,14.192708333333332,0)" xlink:href="#aY"/><use transform="matrix(0.010850694444444444,0,0,0.010850694444444444,19.57465277777778,0)" xlink:href="#bq"/><use transform="matrix(0.010850694444444444,0,0,0.010850694444444444,33.181423611111114,0)" xlink:href="#bf"/><use transform="matrix(0.010850694444444444,0,0,0.010850694444444444,46.13715277777778,0)" xlink:href="#aX"/><use transform="matrix(0.010850694444444444,0,0,0.010850694444444444,51.51909722222222,0)" xlink:href="#aY"/><use transform="matrix(0.010850694444444444,0,0,0.010850694444444444,56.901041666666664,0)" xlink:href="#aZ"/><use transform="matrix(0.010850694444444444,0,0,0.010850694444444444,70.03038194444444,0)" xlink:href="#bf"/></g><path fill="#333" d="M128 0v-1118h300V0H128zm150-1264c-91 0-165-68-165-154 0-85 74-154 165-154 90 0 165 69 165 154 0 86-75 154-165 154" id="br"/><path fill="#333" d="M428-647V0H128v-1118h283l4 231c63-156 176-245 348-245 232 0 384 159 384 421V0H847v-659c0-139-76-222-202-222-128 0-217 86-217 234" id="bs"/><path fill="#333" d="M683-1118v229H474v562c0 71 29 104 102 104 23 0 73-7 95-13l43 225C647 9 580 16 520 16 296 16 174-96 174-301v-588H20v-229h154v-266h300v266h209" id="bt"/><path fill="#333" d="M440 22C227 22 68-92 68-313c0-250 202-322 422-343 195-21 271-24 271-105 0-95-63-149-175-149-116 0-187 57-211 129l-275-46c57-194 237-305 487-305 240 0 474 108 474 379V0H777v-155h-10C713-51 605 22 440 22zm85-211c140 0 238-93 238-211v-121c-37 26-156 42-222 51-111 16-185 59-185 149 0 87 70 132 169 132" id="bu"/><path fill="#333" d="M428-1490V0H128v-1490h300" id="bv"/><path fill="#333" d="M120 0v-182l551-686v-8H137v-242h897v199L514-250v8h539V0H120" id="bw"/><path fill="#333" d="M633 22C291 22 81-200 81-553c0-345 210-579 537-579 292 0 525 185 525 567v84H378c7 183 109 277 260 277 105 0 184-46 216-132l272 51C1071-99 893 22 633 22zM380-669h474c-15-146-94-237-233-237-143 0-229 99-241 237" id="bx"/><g id="u"><use transform="matrix(0.008677625575057506,0,0,0.008677625575057506,0,0)" xlink:href="#br"/><use transform="matrix(0.008677625575057506,0,0,0.008677625575057506,4.816082194156916,0)" xlink:href="#bs"/><use transform="matrix(0.008677625575057506,0,0,0.008677625575057506,15.880054802355236,0)" xlink:href="#br"/><use transform="matrix(0.008677625575057506,0,0,0.008677625575057506,20.696136996512152,0)" xlink:href="#bt"/><use transform="matrix(0.008677625575057506,0,0,0.008677625575057506,27.204356177805277,0)" xlink:href="#br"/><use transform="matrix(0.008677625575057506,0,0,0.008677625575057506,32.0204383719622,0)" xlink:href="#bu"/><use transform="matrix(0.008677625575057506,0,0,0.008677625575057506,42.338135180705585,0)" xlink:href="#bv"/><use transform="matrix(0.008677625575057506,0,0,0.008677625575057506,47.1542173748625,0)" xlink:href="#br"/><use transform="matrix(0.008677625575057506,0,0,0.008677625575057506,51.97029956901942,0)" xlink:href="#bw"/><use transform="matrix(0.008677625575057506,0,0,0.008677625575057506,61.79337171998451,0)" xlink:href="#bx"/></g><path fill="#333" d="M361 0L31-1118h315c68 295 127 523 188 845 63-317 128-551 199-845h276c71 296 131 525 196 846 57-321 119-552 186-846h319L1378 0h-305c-73-261-148-486-204-771C813-484 740-261 666 0H361" id="by"/><path fill="#333" d="M428-647V0H128v-1490h294v586c65-146 175-228 341-228 232 0 385 159 385 421V0H847v-659c0-139-76-222-202-222-128 0-217 86-217 234" id="bz"/><g id="v"><use transform="matrix(0.008677625575057506,0,0,0.008677625575057506,0,0)" xlink:href="#by"/><use transform="matrix(0.008677625575057506,0,0,0.008677625575057506,15.107746126175119,0)" xlink:href="#br"/><use transform="matrix(0.008677625575057506,0,0,0.008677625575057506,19.923828320332035,0)" xlink:href="#bt"/><use transform="matrix(0.008677625575057506,0,0,0.008677625575057506,26.475435629500453,0)" xlink:href="#bz"/></g><path fill="#333" d="M628 22C291 22 81-210 81-554c0-346 210-578 547-578 265 0 455 142 497 372l-279 52c-25-116-99-188-215-188-160 0-244 139-244 341 0 200 84 341 244 341 116 0 193-74 217-195l279 51C1085-123 896 22 628 22" id="bA"/><path fill="#333" d="M628 22C291 22 81-210 81-554c0-346 210-578 547-578 336 0 547 232 547 578 0 344-211 576-547 576zm0-236c160 0 242-146 242-341 0-197-82-341-242-341S387-753 387-555c0 195 81 341 241 341" id="bB"/><path fill="#333" d="M750-1118v229H516V0H217v-889H20v-229h197v-86c0-238 156-356 363-356 94 0 178 20 215 31l-54 226c-25-7-61-15-100-15-123-3-131 84-125 200h234" id="bC"/><path fill="#333" d="M625 442c-280 0-454-114-503-274l258-72c28 63 97 128 243 128 153 0 246-69 246-216v-206h-23C805-108 717-16 536-16 284-16 81-191 81-561c0-378 208-571 456-571 188 0 280 113 321 202h13v-188h295V-9c0 303-226 451-541 451zm5-686c153 0 240-119 240-319 0-198-86-329-240-329-158 0-241 137-241 329 0 195 85 319 241 319" id="bD"/><g id="w"><use transform="matrix(0.008677625575057506,0,0,0.008677625575057506,0,0)" xlink:href="#bA"/><use transform="matrix(0.008677625575057506,0,0,0.008677625575057506,10.456538817944296,0)" xlink:href="#bB"/><use transform="matrix(0.008677625575057506,0,0,0.008677625575057506,21.355636540216523,0)" xlink:href="#bs"/><use transform="matrix(0.008677625575057506,0,0,0.008677625575057506,32.41960914841484,0)" xlink:href="#bC"/><use transform="matrix(0.008677625575057506,0,0,0.008677625575057506,39.639393626862685,0)" xlink:href="#br"/><use transform="matrix(0.008677625575057506,0,0,0.008677625575057506,44.455475821019604,0)" xlink:href="#bD"/></g><path fill="#333" d="M537 19C279 19 81-185 81-557c0-382 206-575 454-575 190 0 278 113 318 202h10v-560h300V0H868v-179h-15C812-89 719 19 537 19zm92-241c153 0 240-134 240-336 0-203-86-334-240-334-158 0-240 138-240 334 0 197 84 336 240 336" id="bE"/><path fill="#333" d="M786 20C389 20 94-260 94-744c0-487 299-766 692-766 339 0 597 194 641 529h-309c-28-162-156-258-326-258-233 0-388 179-388 495 0 323 157 493 387 493 170 0 298-97 328-259h309c-34 277-266 530-642 530" id="bF"/><path fill="#333" d="M169-607c0-330 107-732 258-974h279c-145 311-231 674-231 974 0 262 67 512 231 886H427C258-1 169-307 169-607" id="bG"/><path fill="#333" d="M67 279c166-379 230-627 230-886 0-300-86-663-230-974h278c151 241 258 644 258 974 0 302-90 608-258 886H67" id="bH"/><g id="x"><use transform="matrix(0.008677625575057506,0,0,0.008677625575057506,0,0)" xlink:href="#bv"/><use transform="matrix(0.008677625575057506,0,0,0.008677625575057506,4.816082194156916,0)" xlink:href="#bB"/><use transform="matrix(0.008677625575057506,0,0,0.008677625575057506,15.888732427930293,0)" xlink:href="#bu"/><use transform="matrix(0.008677625575057506,0,0,0.008677625575057506,26.206429236673664,0)" xlink:href="#bE"/><use transform="matrix(0.008677625575057506,0,0,0.008677625575057506,37.40924385407291,0)" xlink:href="#bF"/><use transform="matrix(0.008677625575057506,0,0,0.008677625575057506,50.55584660028504,0)" xlink:href="#bB"/><use transform="matrix(0.008677625575057506,0,0,0.008677625575057506,61.45494432255727,0)" xlink:href="#bs"/><use transform="matrix(0.008677625575057506,0,0,0.008677625575057506,72.51891693075558,0)" xlink:href="#bC"/><use transform="matrix(0.008677625575057506,0,0,0.008677625575057506,79.73870140920343,0)" xlink:href="#br"/><use transform="matrix(0.008677625575057506,0,0,0.008677625575057506,84.55478360336035,0)" xlink:href="#bD"/><use transform="matrix(0.008677625575057506,0,0,0.008677625575057506,95.78363109748476,0)" xlink:href="#bG"/><use transform="matrix(0.008677625575057506,0,0,0.008677625575057506,102.48275804142915,0)" xlink:href="#bH"/></g><path fill="#333" d="M128 418v-1536h295v188h14c41-89 129-202 319-202 248 0 453 193 453 575 0 372-197 576-455 576-183 0-275-108-317-198h-9v597H128zm534-640c156 0 240-139 240-336 0-196-83-334-240-334-154 0-241 131-241 334 0 202 88 336 241 336" id="bI"/><path fill="#333" d="M128 0v-1118h290v195h12c54-169 184-238 367-200v268c-27-8-86-15-130-15-138 0-239 95-239 234V0H128" id="bJ"/><path fill="#333" d="M572 22C302 22 117-98 78-306l279-48c29 105 101 156 224 156 114 0 185-48 185-115 0-118-228-130-337-155-215-49-322-150-322-317 0-215 187-347 470-347 265 0 424 116 466 298l-266 47c-24-76-87-130-196-130-98 0-174 46-174 113 0 56 38 95 144 117l201 40c216 44 320 143 320 302 0 220-207 367-500 367" id="bK"/><g id="y"><use transform="matrix(0.008677625575057506,0,0,0.008677625575057506,0,0)" xlink:href="#bI"/><use transform="matrix(0.008677625575057506,0,0,0.008677625575057506,11.376367128900391,0)" xlink:href="#bu"/><use transform="matrix(0.008677625575057506,0,0,0.008677625575057506,21.694063937643765,0)" xlink:href="#bJ"/><use transform="matrix(0.008677625575057506,0,0,0.008677625575057506,28.931203667241725,0)" xlink:href="#bK"/><use transform="matrix(0.008677625575057506,0,0,0.008677625575057506,38.88444020183269,0)" xlink:href="#bx"/></g><path fill="#333" d="M567 20C257 20 68-148 68-448v-87h305v92c0 143 75 217 194 217s193-74 193-218v-1046h302v1041c0 301-188 469-495 469" id="bL"/><path fill="#333" d="M681 22C323 22 94-145 85-462h297c10 151 131 226 296 226 163 0 271-77 271-190 0-102-95-149-257-189l-164-41c-252-61-403-188-403-405 0-269 236-449 560-449 330 0 546 183 551 445H941c-11-119-106-188-259-188-156 0-244 72-244 172-3 156 226 185 373 221 250 61 445 186 445 436 0 271-213 446-575 446" id="bM"/><path fill="#333" d="M789 20C394 20 94-260 94-744c0-487 300-766 695-766s695 279 695 766c0 485-300 764-695 764zm0-271c231 0 385-174 385-493 0-321-154-495-385-495s-385 175-385 495c0 319 154 493 385 493" id="bN"/><path fill="#333" d="M135 0v-1490h340l471 754c59 97 122 210 187 365-32-387-14-721-19-1119h312V0h-341C855-382 627-689 427-1113c32 420 16 695 20 1113H135" id="bO"/><g id="z"><use transform="matrix(0.008677625575057506,0,0,0.008677625575057506,0,0)" xlink:href="#bL"/><use transform="matrix(0.008677625575057506,0,0,0.008677625575057506,10.387117813343835,0)" xlink:href="#bM"/><use transform="matrix(0.008677625575057506,0,0,0.008677625575057506,22.02381370949595,0)" xlink:href="#bN"/><use transform="matrix(0.008677625575057506,0,0,0.008677625575057506,35.717106866936696,0)" xlink:href="#bO"/></g><path fill="#333" d="M513 14c-232 0-385-159-385-421v-711h300v659c0 139 76 222 202 222 127 0 217-86 217-234v-647h301V0H864l-4-232C797-74 683 14 513 14" id="bP"/><g id="A"><use transform="matrix(0.008677625575057506,0,0,0.008677625575057506,0,0)" xlink:href="#bJ"/><use transform="matrix(0.008677625575057506,0,0,0.008677625575057506,7.237139729597961,0)" xlink:href="#bP"/><use transform="matrix(0.008677625575057506,0,0,0.008677625575057506,18.30111233779628,0)" xlink:href="#bv"/><use transform="matrix(0.008677625575057506,0,0,0.008677625575057506,23.117194531953196,0)" xlink:href="#bx"/><use transform="matrix(0.008677625575057506,0,0,0.008677625575057506,33.703897733523355,0)" xlink:href="#bK"/></g><g id="B"><use transform="matrix(0.008677625575057506,0,0,0.008677625575057506,0,0)" xlink:href="#bK"/><use transform="matrix(0.008677625575057506,0,0,0.008677625575057506,9.95323653459096,0)" xlink:href="#bt"/><use transform="matrix(0.008677625575057506,0,0,0.008677625575057506,16.548231971634664,0)" xlink:href="#bu"/><use transform="matrix(0.008677625575057506,0,0,0.008677625575057506,26.86592878037804,0)" xlink:href="#bJ"/><use transform="matrix(0.008677625575057506,0,0,0.008677625575057506,34.4501735329783,0)" xlink:href="#bt"/></g><path fill="#333" d="M754 19C571 19 479-89 437-179h-14V0H128v-1490h300v560h9c41-89 129-202 319-202 248 0 453 193 453 575 0 372-197 576-455 576zm-92-241c156 0 240-139 240-336 0-196-83-334-240-334-154 0-241 131-241 334 0 202 88 336 241 336" id="bQ"/><path fill="#333" d="M443 0L31-1118h319c90 293 199 572 268 885 66-313 175-593 264-885h315L784 0H443" id="bR"/><g id="C"><use transform="matrix(0.008677625575057506,0,0,0.008677625575057506,0,0)" xlink:href="#bB"/><use transform="matrix(0.008677625575057506,0,0,0.008677625575057506,10.899097722272227,0)" xlink:href="#bQ"/><use transform="matrix(0.008677625575057506,0,0,0.008677625575057506,22.10191233967147,0)" xlink:href="#bK"/><use transform="matrix(0.008677625575057506,0,0,0.008677625575057506,32.05514887426243,0)" xlink:href="#bx"/><use transform="matrix(0.008677625575057506,0,0,0.008677625575057506,42.64185207583259,0)" xlink:href="#bJ"/><use transform="matrix(0.008677625575057506,0,0,0.008677625575057506,50.156675823832394,0)" xlink:href="#bR"/><use transform="matrix(0.008677625575057506,0,0,0.008677625575057506,60.81280003000301,0)" xlink:href="#br"/><use transform="matrix(0.008677625575057506,0,0,0.008677625575057506,65.62888222415992,0)" xlink:href="#bs"/><use transform="matrix(0.008677625575057506,0,0,0.008677625575057506,76.69285483235825,0)" xlink:href="#bD"/></g><path fill="#333" d="M659 0H135v-1490h529c448 0 721 280 721 744 0 466-273 746-726 746zM440-263h204c287 0 437-148 437-483 0-333-150-481-435-481H440v964" id="bS"/><path fill="#333" d="M135 0v-1490h468l242 684c30 94 76 293 111 455 34-161 80-360 110-455l238-684h470V0h-307c0-447-3-765 11-1227-122 503-246 788-395 1227H826C676-435 552-717 427-1215c15 453 11 775 11 1215H135" id="bT"/><g id="D"><use transform="matrix(0.008677625575057506,0,0,0.008677625575057506,0,0)" xlink:href="#bS"/><use transform="matrix(0.008677625575057506,0,0,0.008677625575057506,12.834208225510052,0)" xlink:href="#bN"/><use transform="matrix(0.008677625575057506,0,0,0.008677625575057506,26.527501382950796,0)" xlink:href="#bT"/></g><g id="E"><use transform="matrix(0.008677625575057506,0,0,0.008677625575057506,0,0)" xlink:href="#bJ"/><use transform="matrix(0.008677625575057506,0,0,0.008677625575057506,6.803258450845085,0)" xlink:href="#bx"/><use transform="matrix(0.008677625575057506,0,0,0.008677625575057506,17.389961652415245,0)" xlink:href="#bC"/><use transform="matrix(0.008677625575057506,0,0,0.008677625575057506,24.462226496087112,0)" xlink:href="#bJ"/><use transform="matrix(0.008677625575057506,0,0,0.008677625575057506,31.265484946932194,0)" xlink:href="#bx"/><use transform="matrix(0.008677625575057506,0,0,0.008677625575057506,41.85218814850235,0)" xlink:href="#bK"/><use transform="matrix(0.008677625575057506,0,0,0.008677625575057506,51.80542468309332,0)" xlink:href="#bz"/></g><g id="F"><use transform="matrix(0.008677625575057506,0,0,0.008677625575057506,0,0)" xlink:href="#bK"/><use transform="matrix(0.008677625575057506,0,0,0.008677625575057506,9.95323653459096,0)" xlink:href="#bA"/><use transform="matrix(0.008677625575057506,0,0,0.008677625575057506,20.583327864036406,0)" xlink:href="#bu"/><use transform="matrix(0.008677625575057506,0,0,0.008677625575057506,30.90102467277978,0)" xlink:href="#bs"/></g><g id="G"><use transform="matrix(0.010850694444444444,0,0,0.010850694444444444,0,0)" xlink:href="#aT"/><use transform="matrix(0.010850694444444444,0,0,0.010850694444444444,12.565104166666666,0)" xlink:href="#aO"/><use transform="matrix(0.010850694444444444,0,0,0.010850694444444444,25.889756944444443,0)" xlink:href="#aO"/><use transform="matrix(0.010850694444444444,0,0,0.010850694444444444,39.21440972222222,0)" xlink:href="#bq"/></g><path fill="#333" d="M226 279v-1860h398v153H398V126h226v153H226" id="bU"/><path fill="#333" d="M657 26c-323 0-524-166-541-416h195c15 169 171 246 346 246 202 0 356-106 356-265 5-203-294-238-475-293-239-73-380-191-380-389 0-252 224-419 512-419 294 0 499 171 508 396H992c-17-145-151-228-328-228-193 0-321 102-321 242 0 156 175 211 284 241l149 41c160 44 422 134 422 412 0 244-197 432-541 432" id="bV"/><g id="H"><use transform="matrix(0.010850694444444444,0,0,0.010850694444444444,0,0)" xlink:href="#bU"/><use transform="matrix(0.010850694444444444,0,0,0.010850694444444444,8.10546875,0)" xlink:href="#bV"/><use transform="matrix(0.010850694444444444,0,0,0.010850694444444444,22.36328125,0)" xlink:href="#bd"/><use transform="matrix(0.010850694444444444,0,0,0.010850694444444444,35.275607638888886,0)" xlink:href="#bg"/><use transform="matrix(0.010850694444444444,0,0,0.010850694444444444,47.75390625,0)" xlink:href="#aZ"/></g><path fill="#333" d="M577 24c-279 0-473-224-473-580 0-354 195-576 474-576 218 0 287 134 324 193h14v-551h180V0H922v-173h-20C865-111 790 24 577 24zm27-161c203 0 314-172 314-421 0-247-108-413-314-413-212 0-317 181-317 413 0 235 108 421 317 421" id="bW"/><g id="I"><use transform="matrix(0.010850694444444444,0,0,0.010850694444444444,0,0)" xlink:href="#aO"/><use transform="matrix(0.010850694444444444,0,0,0.010850694444444444,13.324652777777777,0)" xlink:href="#bl"/><use transform="matrix(0.010850694444444444,0,0,0.010850694444444444,26.931423611111104,0)" xlink:href="#aP"/><use transform="matrix(0.010850694444444444,0,0,0.010850694444444444,38.66102430555555,0)" xlink:href="#bf"/><use transform="matrix(0.010850694444444444,0,0,0.010850694444444444,51.61675347222221,0)" xlink:href="#bc"/><use transform="matrix(0.010850694444444444,0,0,0.010850694444444444,60.3298611111111,0)" xlink:href="#bm"/><use transform="matrix(0.010850694444444444,0,0,0.010850694444444444,72.38498263888887,0)" xlink:href="#bf"/><use transform="matrix(0.010850694444444444,0,0,0.010850694444444444,85.34071180555554,0)" xlink:href="#bW"/></g><path fill="#333" d="M123 279V126h226v-1554H123v-153h398V279H123" id="bX"/><g id="J"><use transform="matrix(0.010850694444444444,0,0,0.010850694444444444,0,0)" xlink:href="#bg"/><use transform="matrix(0.010850694444444444,0,0,0.010850694444444444,12.47829861111111,0)" xlink:href="#aZ"/><use transform="matrix(0.010850694444444444,0,0,0.010850694444444444,25.60763888888889,0)" xlink:href="#bd"/><use transform="matrix(0.010850694444444444,0,0,0.010850694444444444,38.302951388888886,0)" xlink:href="#be"/><use transform="matrix(0.010850694444444444,0,0,0.010850694444444444,51.44314236111111,0)" xlink:href="#aO"/><use transform="matrix(0.010850694444444444,0,0,0.010850694444444444,64.76779513888889,0)" xlink:href="#bc"/><use transform="matrix(0.010850694444444444,0,0,0.010850694444444444,73.13368055555556,0)" xlink:href="#aP"/><use transform="matrix(0.010850694444444444,0,0,0.010850694444444444,84.86328125,0)" xlink:href="#bX"/></g><g id="K"><use transform="matrix(0.008677625575057506,0,0,0.008677625575057506,0,0)" xlink:href="#bx"/><use transform="matrix(0.008677625575057506,0,0,0.008677625575057506,10.26563105529303,0)" xlink:href="#bR"/><use transform="matrix(0.008677625575057506,0,0,0.008677625575057506,20.7482027499625,0)" xlink:href="#bu"/><use transform="matrix(0.008677625575057506,0,0,0.008677625575057506,31.065899558705873,0)" xlink:href="#bv"/><use transform="matrix(0.008677625575057506,0,0,0.008677625575057506,35.88198175286279,0)" xlink:href="#bP"/><use transform="matrix(0.008677625575057506,0,0,0.008677625575057506,46.945954361061105,0)" xlink:href="#bu"/><use transform="matrix(0.008677625575057506,0,0,0.008677625575057506,57.263651169804476,0)" xlink:href="#bt"/><use transform="matrix(0.008677625575057506,0,0,0.008677625575057506,63.598317839596454,0)" xlink:href="#bx"/></g><path fill="#333" d="M128 0v-1490h300v802h17l366-430h347L740-633 1179 0H826L514-456l-86 97V0H128" id="bY"/><g id="L"><use transform="matrix(0.008677625575057506,0,0,0.008677625575057506,0,0)" xlink:href="#bv"/><use transform="matrix(0.008677625575057506,0,0,0.008677625575057506,4.816082194156916,0)" xlink:href="#br"/><use transform="matrix(0.008677625575057506,0,0,0.008677625575057506,9.632164388313832,0)" xlink:href="#bs"/><use transform="matrix(0.008677625575057506,0,0,0.008677625575057506,20.696136996512152,0)" xlink:href="#bY"/></g><path fill="#333" d="M52 0l541-1490h220L1361 0h-200l-149-416H398L254 0H52zm404-582h497c-103-290-145-390-251-756-108 377-145 460-246 756" id="bZ"/><g id="M"><use transform="matrix(0.008677625575057506,0,0,0.008677625575057506,0,0)" xlink:href="#bZ"/><use transform="matrix(0.008677625575057506,0,0,0.008677625575057506,12.261484937556256,0)" xlink:href="#aX"/><use transform="matrix(0.008677625575057506,0,0,0.008677625575057506,16.825915990036503,0)" xlink:href="#aQ"/><use transform="matrix(0.008677625575057506,0,0,0.008677625575057506,22.466372613823886,0)" xlink:href="#bf"/><use transform="matrix(0.008677625575057506,0,0,0.008677625575057506,32.827457550442546,0)" xlink:href="#bc"/><use transform="matrix(0.008677625575057506,0,0,0.008677625575057506,39.79559088721373,0)" xlink:href="#aZ"/><use transform="matrix(0.008677625575057506,0,0,0.008677625575057506,50.29551783303331,0)" xlink:href="#bg"/><use transform="matrix(0.008677625575057506,0,0,0.008677625575057506,60.27478724434944,0)" xlink:href="#aQ"/><use transform="matrix(0.008677625575057506,0,0,0.008677625575057506,66.08879637963797,0)" xlink:href="#aY"/><use transform="matrix(0.008677625575057506,0,0,0.008677625575057506,70.3928986648665,0)" xlink:href="#bm"/><use transform="matrix(0.008677625575057506,0,0,0.008677625575057506,80.03374067875538,0)" xlink:href="#bf"/></g><g id="N"><use transform="matrix(0.008677625575057506,0,0,0.008677625575057506,0,0)" xlink:href="#bU"/><use transform="matrix(0.008677625575057506,0,0,0.008677625575057506,6.482186304567957,0)" xlink:href="#bh"/><use transform="matrix(0.008677625575057506,0,0,0.008677625575057506,17.919296812493748,0)" xlink:href="#bi"/><use transform="matrix(0.008677625575057506,0,0,0.008677625575057506,28.42790138388839,0)" xlink:href="#aX"/><use transform="matrix(0.008677625575057506,0,0,0.008677625575057506,32.732003669116914,0)" xlink:href="#bf"/></g><g id="O"><use transform="matrix(0.008677625575057506,0,0,0.008677625575057506,0,0)" xlink:href="#bo"/><use transform="matrix(0.008677625575057506,0,0,0.008677625575057506,15.567660281653167,0)" xlink:href="#bg"/><use transform="matrix(0.008677625575057506,0,0,0.008677625575057506,25.5469296929693,0)" xlink:href="#aQ"/><use transform="matrix(0.008677625575057506,0,0,0.008677625575057506,31.18738631675668,0)" xlink:href="#bd"/><use transform="matrix(0.008677625575057506,0,0,0.008677625575057506,41.34020823957396,0)" xlink:href="#be"/></g><path fill="#333" d="M678-1118v154H420V0H240v-964H20v-154h220v-149c0-194 155-293 318-293 85 0 141 18 168 30l-50 154c-19-6-47-17-97-17-111 0-159 58-159 166v109h258" id="ca"/><g id="P"><use transform="matrix(0.008677625575057506,0,0,0.008677625575057506,0,0)" xlink:href="#ca"/><use transform="matrix(0.008677625575057506,0,0,0.008677625575057506,6.05698265139014,0)" xlink:href="#aO"/><use transform="matrix(0.008677625575057506,0,0,0.008677625575057506,16.71310685756076,0)" xlink:href="#bi"/><use transform="matrix(0.008677625575057506,0,0,0.008677625575057506,27.221711428955402,0)" xlink:href="#aZ"/><use transform="matrix(0.008677625575057506,0,0,0.008677625575057506,37.72163837477498,0)" xlink:href="#bW"/><use transform="matrix(0.008677625575057506,0,0,0.008677625575057506,48.60338084589709,0)" xlink:href="#bX"/></g><path fill="#333" d="M180 0v-1490h224l606 953c40 63 108 177 176 312-27-437-7-821-13-1265h190V0h-226C860-448 622-778 356-1262c27 476 11 792 15 1262H180" id="cb"/><g id="Q"><use transform="matrix(0.008677625575057506,0,0,0.008677625575057506,0,0)" xlink:href="#bU"/><use transform="matrix(0.008677625575057506,0,0,0.008677625575057506,6.482186304567957,0)" xlink:href="#cb"/><use transform="matrix(0.008677625575057506,0,0,0.008677625575057506,19.87176256688169,0)" xlink:href="#aO"/></g><g id="R"><use transform="matrix(0.008677625575057506,0,0,0.008677625575057506,0,0)" xlink:href="#bo"/><use transform="matrix(0.008677625575057506,0,0,0.008677625575057506,15.567660281653167,0)" xlink:href="#bg"/><use transform="matrix(0.008677625575057506,0,0,0.008677625575057506,25.5469296929693,0)" xlink:href="#aQ"/><use transform="matrix(0.008677625575057506,0,0,0.008677625575057506,31.18738631675668,0)" xlink:href="#bd"/><use transform="matrix(0.008677625575057506,0,0,0.008677625575057506,41.34020823957396,0)" xlink:href="#be"/><use transform="matrix(0.008677625575057506,0,0,0.008677625575057506,51.8488128109686,0)" xlink:href="#bX"/></g><g id="S"><use transform="matrix(0.008677625575057506,0,0,0.008677625575057506,0,0)" xlink:href="#bA"/><use transform="matrix(0.008677625575057506,0,0,0.008677625575057506,10.456538817944296,0)" xlink:href="#bJ"/><use transform="matrix(0.008677625575057506,0,0,0.008677625575057506,17.25979726878938,0)" xlink:href="#bx"/><use transform="matrix(0.008677625575057506,0,0,0.008677625575057506,28.020052981860687,0)" xlink:href="#bu"/><use transform="matrix(0.008677625575057506,0,0,0.008677625575057506,38.337749790604065,0)" xlink:href="#bt"/><use transform="matrix(0.008677625575057506,0,0,0.008677625575057506,44.67241646039604,0)" xlink:href="#bx"/></g><g id="T"><use transform="matrix(0.008677625575057506,0,0,0.008677625575057506,0,0)" xlink:href="#bI"/><use transform="matrix(0.008677625575057506,0,0,0.008677625575057506,11.202814617399241,0)" xlink:href="#br"/><use transform="matrix(0.008677625575057506,0,0,0.008677625575057506,16.018896811556157,0)" xlink:href="#bI"/><use transform="matrix(0.008677625575057506,0,0,0.008677625575057506,27.2217114289554,0)" xlink:href="#bx"/><use transform="matrix(0.008677625575057506,0,0,0.008677625575057506,37.808414630525554,0)" xlink:href="#bv"/><use transform="matrix(0.008677625575057506,0,0,0.008677625575057506,42.62449682468247,0)" xlink:href="#br"/><use transform="matrix(0.008677625575057506,0,0,0.008677625575057506,47.44057901883939,0)" xlink:href="#bs"/><use transform="matrix(0.008677625575057506,0,0,0.008677625575057506,58.504551627037706,0)" xlink:href="#bx"/></g><g id="U"><use transform="matrix(0.008677625575057506,0,0,0.008677625575057506,0,0)" xlink:href="#bE"/><use transform="matrix(0.008677625575057506,0,0,0.008677625575057506,11.202814617399241,0)" xlink:href="#bx"/><use transform="matrix(0.008677625575057506,0,0,0.008677625575057506,21.7895178189694,0)" xlink:href="#bA"/><use transform="matrix(0.008677625575057506,0,0,0.008677625575057506,32.24605663691369,0)" xlink:href="#bB"/><use transform="matrix(0.008677625575057506,0,0,0.008677625575057506,43.14515435918592,0)" xlink:href="#bJ"/><use transform="matrix(0.008677625575057506,0,0,0.008677625575057506,50.13932057268228,0)" xlink:href="#bu"/><use transform="matrix(0.008677625575057506,0,0,0.008677625575057506,60.45701738142566,0)" xlink:href="#bt"/><use transform="matrix(0.008677625575057506,0,0,0.008677625575057506,66.79168405121764,0)" xlink:href="#bx"/></g><g id="V"><use transform="matrix(0.008677625575057506,0,0,0.008677625575057506,0,0)" xlink:href="#bB"/><use transform="matrix(0.008677625575057506,0,0,0.008677625575057506,10.899097722272227,0)" xlink:href="#bJ"/></g><g id="W"><use transform="matrix(0.008677625575057506,0,0,0.008677625575057506,0,0)" xlink:href="#bJ"/><use transform="matrix(0.008677625575057506,0,0,0.008677625575057506,6.803258450845085,0)" xlink:href="#bx"/><use transform="matrix(0.008677625575057506,0,0,0.008677625575057506,17.389961652415245,0)" xlink:href="#bI"/><use transform="matrix(0.008677625575057506,0,0,0.008677625575057506,28.592776269814486,0)" xlink:href="#bv"/><use transform="matrix(0.008677625575057506,0,0,0.008677625575057506,33.4088584639714,0)" xlink:href="#bu"/><use transform="matrix(0.008677625575057506,0,0,0.008677625575057506,43.726555272714776,0)" xlink:href="#bA"/><use transform="matrix(0.008677625575057506,0,0,0.008677625575057506,54.18309409065907,0)" xlink:href="#bx"/></g><g id="X"><use transform="matrix(0.008677625575057506,0,0,0.008677625575057506,0,0)" xlink:href="#bv"/><use transform="matrix(0.008677625575057506,0,0,0.008677625575057506,4.816082194156916,0)" xlink:href="#br"/><use transform="matrix(0.008677625575057506,0,0,0.008677625575057506,9.632164388313832,0)" xlink:href="#bs"/><use transform="matrix(0.008677625575057506,0,0,0.008677625575057506,20.696136996512152,0)" xlink:href="#bY"/></g><path fill="#333" d="M120 396l69-226c123 42 245 23 254-107l8-60L31-1118h319c87 288 199 559 259 872 72-308 185-583 277-872h315L726 132c-68 181-186 294-410 294-79 0-153-13-196-30" id="cc"/><g id="Y"><use transform="matrix(0.008677625575057506,0,0,0.008677625575057506,0,0)" xlink:href="#bJ"/><use transform="matrix(0.008677625575057506,0,0,0.008677625575057506,6.803258450845085,0)" xlink:href="#bx"/><use transform="matrix(0.008677625575057506,0,0,0.008677625575057506,17.563514163916395,0)" xlink:href="#bu"/><use transform="matrix(0.008677625575057506,0,0,0.008677625575057506,27.88121097265977,0)" xlink:href="#bE"/><use transform="matrix(0.008677625575057506,0,0,0.008677625575057506,39.26625572713522,0)" xlink:href="#cc"/></g><g id="Z"><use transform="matrix(0.008677625575057506,0,0,0.008677625575057506,0,0)" xlink:href="#br"/><use transform="matrix(0.008677625575057506,0,0,0.008677625575057506,4.816082194156916,0)" xlink:href="#bD"/><use transform="matrix(0.008677625575057506,0,0,0.008677625575057506,16.04492968828133,0)" xlink:href="#bs"/><use transform="matrix(0.008677625575057506,0,0,0.008677625575057506,27.10890229647965,0)" xlink:href="#bB"/><use transform="matrix(0.008677625575057506,0,0,0.008677625575057506,38.00800001875187,0)" xlink:href="#bJ"/><use transform="matrix(0.008677625575057506,0,0,0.008677625575057506,44.81125846959696,0)" xlink:href="#bx"/></g><g id="aa"><use transform="matrix(0.008677625575057506,0,0,0.008677625575057506,0,0)" xlink:href="#bZ"/><use transform="matrix(0.008677625575057506,0,0,0.008677625575057506,12.261484937556256,0)" xlink:href="#aX"/><use transform="matrix(0.008677625575057506,0,0,0.008677625575057506,16.825915990036503,0)" xlink:href="#aQ"/><use transform="matrix(0.008677625575057506,0,0,0.008677625575057506,22.466372613823886,0)" xlink:href="#bf"/><use transform="matrix(0.008677625575057506,0,0,0.008677625575057506,32.827457550442546,0)" xlink:href="#bc"/><use transform="matrix(0.008677625575057506,0,0,0.008677625575057506,39.79559088721373,0)" xlink:href="#aZ"/><use transform="matrix(0.008677625575057506,0,0,0.008677625575057506,50.29551783303331,0)" xlink:href="#bg"/><use transform="matrix(0.008677625575057506,0,0,0.008677625575057506,60.27478724434944,0)" xlink:href="#aQ"/><use transform="matrix(0.008677625575057506,0,0,0.008677625575057506,66.08879637963797,0)" xlink:href="#aY"/><use transform="matrix(0.008677625575057506,0,0,0.008677625575057506,70.3928986648665,0)" xlink:href="#bm"/><use transform="matrix(0.008677625575057506,0,0,0.008677625575057506,80.03374067875538,0)" xlink:href="#bf"/></g><g id="ab"><use transform="matrix(0.008677625575057506,0,0,0.008677625575057506,0,0)" xlink:href="#bU"/><use transform="matrix(0.008677625575057506,0,0,0.008677625575057506,6.482186304567957,0)" xlink:href="#bp"/><use transform="matrix(0.008677625575057506,0,0,0.008677625575057506,17.832520556743177,0)" xlink:href="#aY"/><use transform="matrix(0.008677625575057506,0,0,0.008677625575057506,22.1366228419717,0)" xlink:href="#bq"/><use transform="matrix(0.008677625575057506,0,0,0.008677625575057506,33.01836531309381,0)" xlink:href="#bf"/><use transform="matrix(0.008677625575057506,0,0,0.008677625575057506,43.37945024971248,0)" xlink:href="#aX"/><use transform="matrix(0.008677625575057506,0,0,0.008677625575057506,47.683552534941,0)" xlink:href="#aY"/><use transform="matrix(0.008677625575057506,0,0,0.008677625575057506,51.987654820169524,0)" xlink:href="#aZ"/><use transform="matrix(0.008677625575057506,0,0,0.008677625575057506,62.487581765989106,0)" xlink:href="#bf"/></g><g id="ac"><use transform="matrix(0.008677625575057506,0,0,0.008677625575057506,0,0)" xlink:href="#ca"/><use transform="matrix(0.008677625575057506,0,0,0.008677625575057506,6.299956167491749,0)" xlink:href="#bg"/><use transform="matrix(0.008677625575057506,0,0,0.008677625575057506,16.279225578807882,0)" xlink:href="#aY"/><use transform="matrix(0.008677625575057506,0,0,0.008677625575057506,20.583327864036406,0)" xlink:href="#aX"/><use transform="matrix(0.008677625575057506,0,0,0.008677625575057506,24.88743014926493,0)" xlink:href="#bi"/><use transform="matrix(0.008677625575057506,0,0,0.008677625575057506,35.39603472065957,0)" xlink:href="#bc"/><use transform="matrix(0.008677625575057506,0,0,0.008677625575057506,41.79144476947695,0)" xlink:href="#bf"/><use transform="matrix(0.008677625575057506,0,0,0.008677625575057506,51.952944317869296,0)" xlink:href="#bX"/></g><g id="ad"><use transform="matrix(0.008677625575057506,0,0,0.008677625575057506,0,0)" xlink:href="#bJ"/><use transform="matrix(0.008677625575057506,0,0,0.008677625575057506,6.803258450845085,0)" xlink:href="#bB"/><use transform="matrix(0.008677625575057506,0,0,0.008677625575057506,17.702356173117312,0)" xlink:href="#bv"/><use transform="matrix(0.008677625575057506,0,0,0.008677625575057506,22.51843836727423,0)" xlink:href="#bv"/><use transform="matrix(0.008677625575057506,0,0,0.008677625575057506,27.334520561431145,0)" xlink:href="#bQ"/><use transform="matrix(0.008677625575057506,0,0,0.008677625575057506,38.710887690331525,0)" xlink:href="#bu"/><use transform="matrix(0.008677625575057506,0,0,0.008677625575057506,49.02858449907491,0)" xlink:href="#bA"/><use transform="matrix(0.008677625575057506,0,0,0.008677625575057506,59.4851233170192,0)" xlink:href="#bY"/></g><g id="ae"><use transform="matrix(0.008677625575057506,0,0,0.008677625575057506,0,0)" xlink:href="#bB"/><use transform="matrix(0.008677625575057506,0,0,0.008677625575057506,10.899097722272227,0)" xlink:href="#bJ"/><use transform="matrix(0.008677625575057506,0,0,0.008677625575057506,18.26640183549605,0)" xlink:href="#br"/><use transform="matrix(0.008677625575057506,0,0,0.008677625575057506,23.082484029652967,0)" xlink:href="#bD"/><use transform="matrix(0.008677625575057506,0,0,0.008677625575057506,34.31133152377738,0)" xlink:href="#br"/><use transform="matrix(0.008677625575057506,0,0,0.008677625575057506,39.1274137179343,0)" xlink:href="#bs"/><use transform="matrix(0.008677625575057506,0,0,0.008677625575057506,50.19138632613262,0)" xlink:href="#bu"/><use transform="matrix(0.008677625575057506,0,0,0.008677625575057506,60.50908313487599,0)" xlink:href="#bv"/></g><path fill="#333" d="M135 0v-1490h305v602h649v-602h306V0h-306v-635H440V0H135" id="cd"/><path fill="#333" d="M75-1237v-253h1217v253H837V0H531v-1237H75" id="ce"/><path fill="#333" d="M135 0v-1490h305v1237h643V0H135" id="cf"/><g id="af"><use transform="matrix(0.008677625575057506,0,0,0.008677625575057506,0,0)" xlink:href="#cd"/><use transform="matrix(0.008677625575057506,0,0,0.008677625575057506,13.276767129837985,0)" xlink:href="#ce"/><use transform="matrix(0.008677625575057506,0,0,0.008677625575057506,25.139081290941597,0)" xlink:href="#bT"/><use transform="matrix(0.008677625575057506,0,0,0.008677625575057506,41.69599088815132,0)" xlink:href="#cf"/></g><g id="ag"><use transform="matrix(0.010850694444444444,0,0,0.010850694444444444,0,0)" xlink:href="#aW"/><use transform="matrix(0.010850694444444444,0,0,0.010850694444444444,16.9921875,0)" xlink:href="#aZ"/><use transform="matrix(0.010850694444444444,0,0,0.010850694444444444,30.121527777777775,0)" xlink:href="#aX"/><use transform="matrix(0.010850694444444444,0,0,0.010850694444444444,35.611979166666664,0)" xlink:href="#bn"/></g><g id="ah"><use transform="matrix(0.010850694444444444,0,0,0.010850694444444444,0,0)" xlink:href="#bd"/><use transform="matrix(0.010850694444444444,0,0,0.010850694444444444,12.6953125,0)" xlink:href="#aO"/><use transform="matrix(0.010850694444444444,0,0,0.010850694444444444,26.01996527777778,0)" xlink:href="#bo"/><use transform="matrix(0.010850694444444444,0,0,0.010850694444444444,45.48611111111111,0)" xlink:href="#bq"/><use transform="matrix(0.010850694444444444,0,0,0.010850694444444444,59.09288194444444,0)" xlink:href="#aO"/><use transform="matrix(0.010850694444444444,0,0,0.010850694444444444,72.41753472222221,0)" xlink:href="#aZ"/><use transform="matrix(0.010850694444444444,0,0,0.010850694444444444,85.54687499999999,0)" xlink:href="#bf"/><use transform="matrix(0.010850694444444444,0,0,0.010850694444444444,98.50260416666666,0)" xlink:href="#aZ"/><use transform="matrix(0.010850694444444444,0,0,0.010850694444444444,111.63194444444441,0)" xlink:href="#aQ"/></g><g id="ai"><use transform="matrix(0.010850694444444444,0,0,0.010850694444444444,0,0)" xlink:href="#bi"/><use transform="matrix(0.010850694444444444,0,0,0.010850694444444444,13.140190972222221,0)" xlink:href="#aP"/><use transform="matrix(0.010850694444444444,0,0,0.010850694444444444,24.869791666666664,0)" xlink:href="#aY"/><use transform="matrix(0.010850694444444444,0,0,0.010850694444444444,30.251736111111104,0)" xlink:href="#aZ"/><use transform="matrix(0.010850694444444444,0,0,0.010850694444444444,43.381076388888886,0)" xlink:href="#bk"/></g><path fill="#333" d="M545 20c-263 0-445-160-445-446v-80h190v80c0 182 102 279 255 279 152 0 254-97 254-279v-1064h190v1064c0 286-181 446-444 446" id="cg"/><g id="aj"><use transform="matrix(0.010850694444444444,0,0,0.010850694444444444,0,0)" xlink:href="#cg"/><use transform="matrix(0.010850694444444444,0,0,0.010850694444444444,12.684461805555555,0)" xlink:href="#bV"/><use transform="matrix(0.010850694444444444,0,0,0.010850694444444444,26.94227430555556,0)" xlink:href="#aW"/><use transform="matrix(0.010850694444444444,0,0,0.010850694444444444,43.93446180555556,0)" xlink:href="#cb"/></g><path fill="#333" d="M295 13c-75 0-135-60-135-135s60-135 135-135 135 60 135 135S370 13 295 13" id="ch"/><g id="ak"><use transform="matrix(0.010850694444444444,0,0,0.010850694444444444,0,0)" xlink:href="#bd"/><use transform="matrix(0.010850694444444444,0,0,0.010850694444444444,12.6953125,0)" xlink:href="#aO"/><use transform="matrix(0.010850694444444444,0,0,0.010850694444444444,26.01996527777778,0)" xlink:href="#aZ"/><use transform="matrix(0.010850694444444444,0,0,0.010850694444444444,39.14930555555556,0)" xlink:href="#ca"/><use transform="matrix(0.010850694444444444,0,0,0.010850694444444444,47.37413194444444,0)" xlink:href="#aY"/><use transform="matrix(0.010850694444444444,0,0,0.010850694444444444,52.756076388888886,0)" xlink:href="#bk"/><use transform="matrix(0.010850694444444444,0,0,0.010850694444444444,66.38454861111111,0)" xlink:href="#ch"/></g><path fill="#333" d="M295 13c-75 0-135-60-135-135s60-135 135-135 135 60 135 135S370 13 295 13zm0-809c-75 0-135-60-135-135s60-135 135-135 135 60 135 135-60 135-135 135" id="ci"/><g id="al"><use transform="matrix(0.010850694444444444,0,0,0.010850694444444444,0,0)" xlink:href="#bZ"/><use transform="matrix(0.010850694444444444,0,0,0.010850694444444444,14.898003472222221,0)" xlink:href="#aQ"/><use transform="matrix(0.010850694444444444,0,0,0.010850694444444444,21.62543402777778,0)" xlink:href="#aQ"/><use transform="matrix(0.010850694444444444,0,0,0.010850694444444444,28.89539930555556,0)" xlink:href="#bc"/><use transform="matrix(0.010850694444444444,0,0,0.010850694444444444,37.60850694444444,0)" xlink:href="#aY"/><use transform="matrix(0.010850694444444444,0,0,0.010850694444444444,42.990451388888886,0)" xlink:href="#bl"/><use transform="matrix(0.010850694444444444,0,0,0.010850694444444444,56.59722222222221,0)" xlink:href="#bi"/><use transform="matrix(0.010850694444444444,0,0,0.010850694444444444,69.73741319444443,0)" xlink:href="#aQ"/><use transform="matrix(0.010850694444444444,0,0,0.010850694444444444,76.79036458333331,0)" xlink:href="#bf"/><use transform="matrix(0.010850694444444444,0,0,0.010850694444444444,89.74609374999997,0)" xlink:href="#aP"/><use transform="matrix(0.010850694444444444,0,0,0.010850694444444444,101.47569444444441,0)" xlink:href="#ci"/></g><use transform="matrix(0.010850694444444444,0,0,0.010850694444444444,0,0)" xlink:href="#bb" id="am"/><g id="an"><use transform="matrix(0.010850694444444444,0,0,0.010850694444444444,0,0)" xlink:href="#bW"/><use transform="matrix(0.010850694444444444,0,0,0.010850694444444444,13.606770833333332,0)" xlink:href="#bf"/><use transform="matrix(0.010850694444444444,0,0,0.010850694444444444,26.5625,0)" xlink:href="#bl"/><use transform="matrix(0.010850694444444444,0,0,0.010850694444444444,40.16927083333333,0)" xlink:href="#aO"/><use transform="matrix(0.010850694444444444,0,0,0.010850694444444444,53.49392361111111,0)" xlink:href="#bi"/><use transform="matrix(0.010850694444444444,0,0,0.010850694444444444,66.63411458333333,0)" xlink:href="#aZ"/><use transform="matrix(0.010850694444444444,0,0,0.010850694444444444,79.7634548611111,0)" xlink:href="#bd"/><use transform="matrix(0.010850694444444444,0,0,0.010850694444444444,92.45876736111111,0)" xlink:href="#bf"/><use transform="matrix(0.010850694444444444,0,0,0.010850694444444444,105.41449652777777,0)" xlink:href="#bb"/><use transform="matrix(0.010850694444444444,0,0,0.010850694444444444,115.63585069444444,0)" xlink:href="#bo"/><use transform="matrix(0.010850694444444444,0,0,0.010850694444444444,135.10199652777777,0)" xlink:href="#aP"/></g><path fill="#333" d="M65 0l393-574-370-544h210c88 136 192 297 267 435 67-142 176-302 264-435h206L661-564 1053 0H844c-94-144-206-310-287-458C484-308 366-142 273 0H65" id="cj"/><g id="ao"><use transform="matrix(0.010850694444444444,0,0,0.010850694444444444,0,0)" xlink:href="#bo"/><use transform="matrix(0.010850694444444444,0,0,0.010850694444444444,19.466145833333332,0)" xlink:href="#bg"/><use transform="matrix(0.010850694444444444,0,0,0.010850694444444444,31.944444444444443,0)" xlink:href="#cj"/><use transform="matrix(0.010850694444444444,0,0,0.010850694444444444,43.576388888888886,0)" xlink:href="#bb"/><use transform="matrix(0.010850694444444444,0,0,0.010850694444444444,53.79774305555556,0)" xlink:href="#bd"/><use transform="matrix(0.010850694444444444,0,0,0.010850694444444444,66.49305555555554,0)" xlink:href="#aO"/><use transform="matrix(0.010850694444444444,0,0,0.010850694444444444,79.81770833333331,0)" xlink:href="#aZ"/><use transform="matrix(0.010850694444444444,0,0,0.010850694444444444,92.94704861111109,0)" xlink:href="#bd"/><use transform="matrix(0.010850694444444444,0,0,0.010850694444444444,105.64236111111109,0)" xlink:href="#bi"/><use transform="matrix(0.010850694444444444,0,0,0.010850694444444444,118.78255208333331,0)" xlink:href="#bc"/><use transform="matrix(0.010850694444444444,0,0,0.010850694444444444,127.49565972222221,0)" xlink:href="#bc"/><use transform="matrix(0.010850694444444444,0,0,0.010850694444444444,135.49262152777777,0)" xlink:href="#bf"/><use transform="matrix(0.010850694444444444,0,0,0.010850694444444444,148.44835069444443,0)" xlink:href="#aZ"/><use transform="matrix(0.010850694444444444,0,0,0.010850694444444444,161.5776909722222,0)" xlink:href="#aQ"/><use transform="matrix(0.010850694444444444,0,0,0.010850694444444444,168.4136284722222,0)" xlink:href="#bb"/><use transform="matrix(0.010850694444444444,0,0,0.010850694444444444,178.63498263888883,0)" xlink:href="#bq"/><use transform="matrix(0.010850694444444444,0,0,0.010850694444444444,192.24175347222223,0)" xlink:href="#aY"/><use transform="matrix(0.010850694444444444,0,0,0.010850694444444444,197.62369791666666,0)" xlink:href="#bq"/><use transform="matrix(0.010850694444444444,0,0,0.010850694444444444,211.23046875,0)" xlink:href="#bf"/><use transform="matrix(0.010850694444444444,0,0,0.010850694444444444,224.18619791666666,0)" xlink:href="#aX"/><use transform="matrix(0.010850694444444444,0,0,0.010850694444444444,229.56814236111111,0)" xlink:href="#aY"/><use transform="matrix(0.010850694444444444,0,0,0.010850694444444444,234.9500868055556,0)" xlink:href="#aZ"/><use transform="matrix(0.010850694444444444,0,0,0.010850694444444444,248.07942708333331,0)" xlink:href="#bf"/><use transform="matrix(0.010850694444444444,0,0,0.010850694444444444,261.03515625,0)" xlink:href="#aP"/></g><path fill="#333" d="M409 0L70-1118h191c89 329 165 560 243 925 75-353 154-601 240-925h192c85 325 161 564 235 922 77-354 157-598 244-922h191L1267 0h-179c-86-307-176-590-250-913C763-588 675-308 588 0H409" id="ck"/><g id="ap"><use transform="matrix(0.010850694444444444,0,0,0.010850694444444444,0,0)" xlink:href="#bg"/><use transform="matrix(0.010850694444444444,0,0,0.010850694444444444,12.47829861111111,0)" xlink:href="#aX"/><use transform="matrix(0.010850694444444444,0,0,0.010850694444444444,17.860243055555557,0)" xlink:href="#aX"/><use transform="matrix(0.010850694444444444,0,0,0.010850694444444444,23.2421875,0)" xlink:href="#aO"/><use transform="matrix(0.010850694444444444,0,0,0.010850694444444444,36.165364583333336,0)" xlink:href="#ck"/><use transform="matrix(0.010850694444444444,0,0,0.010850694444444444,54.35112847222223,0)" xlink:href="#bb"/><use transform="matrix(0.010850694444444444,0,0,0.010850694444444444,64.5724826388889,0)" xlink:href="#bc"/><use transform="matrix(0.010850694444444444,0,0,0.010850694444444444,72.56944444444446,0)" xlink:href="#bf"/><use transform="matrix(0.010850694444444444,0,0,0.010850694444444444,85.52517361111113,0)" xlink:href="#bd"/><use transform="matrix(0.010850694444444444,0,0,0.010850694444444444,98.22048611111113,0)" xlink:href="#bi"/><use transform="matrix(0.010850694444444444,0,0,0.010850694444444444,111.36067708333334,0)" xlink:href="#bc"/><use transform="matrix(0.010850694444444444,0,0,0.010850694444444444,119.72656250000001,0)" xlink:href="#aP"/><use transform="matrix(0.010850694444444444,0,0,0.010850694444444444,131.45616319444446,0)" xlink:href="#aY"/><use transform="matrix(0.010850694444444444,0,0,0.010850694444444444,136.8381076388889,0)" xlink:href="#bm"/><use transform="matrix(0.010850694444444444,0,0,0.010850694444444444,148.89322916666669,0)" xlink:href="#bf"/></g><path fill="#333" d="M135 0v-1490h581c339 0 533 192 533 485 0 204-94 351-264 424L1302 0H964L680-532H440V0H135zm305-779h220c186 0 274-77 274-226 0-150-88-233-275-233H440v459" id="cl"/><path fill="#333" d="M135 0v-1490h980v253H440v416h609v249H440V0H135" id="cm"/><path fill="#333" d="M818-733v240H140v-240h678" id="cn"/><path fill="#333" d="M449 0L49-1490h333c89 395 194 758 253 1185 65-426 176-790 269-1185h317c93 394 201 758 268 1181 60-425 164-788 253-1181h334L1675 0h-348c-90-376-204-711-266-1118C1004-714 886-373 798 0H449" id="co"/><g id="aq"><use transform="matrix(0.010850694444444444,0,0,0.010850694444444444,0,0)" xlink:href="#cl"/><use transform="matrix(0.010850694444444444,0,0,0.010850694444444444,14.594184027777777,0)" xlink:href="#bS"/><use transform="matrix(0.010850694444444444,0,0,0.010850694444444444,30.642361111111104,0)" xlink:href="#cm"/><use transform="matrix(0.010850694444444444,0,0,0.010850694444444444,43.68489583333333,0)" xlink:href="#cn"/><use transform="matrix(0.010850694444444444,0,0,0.010850694444444444,53.55902777777778,0)" xlink:href="#co"/><use transform="matrix(0.010850694444444444,0,0,0.010850694444444444,76.07421875,0)" xlink:href="#bF"/></g><g id="ar"><use transform="matrix(0.010850694444444444,0,0,0.010850694444444444,0,0)" xlink:href="#bN"/><use transform="matrix(0.010850694444444444,0,0,0.010850694444444444,17.122395833333332,0)" xlink:href="#bJ"/><use transform="matrix(0.010850694444444444,0,0,0.010850694444444444,25.62934027777778,0)" xlink:href="#bA"/><use transform="matrix(0.010850694444444444,0,0,0.010850694444444444,38.704427083333336,0)" xlink:href="#bz"/><use transform="matrix(0.010850694444444444,0,0,0.010850694444444444,52.5390625,0)" xlink:href="#bx"/><use transform="matrix(0.010850694444444444,0,0,0.010850694444444444,65.77690972222223,0)" xlink:href="#bK"/><use transform="matrix(0.010850694444444444,0,0,0.010850694444444444,78.22265625,0)" xlink:href="#bt"/><use transform="matrix(0.010850694444444444,0,0,0.010850694444444444,86.36067708333333,0)" xlink:href="#bJ"/><use transform="matrix(0.010850694444444444,0,0,0.010850694444444444,95.10633680555556,0)" xlink:href="#bu"/><use transform="matrix(0.010850694444444444,0,0,0.010850694444444444,108.0078125,0)" xlink:href="#bt"/><use transform="matrix(0.010850694444444444,0,0,0.010850694444444444,116.14583333333333,0)" xlink:href="#br"/><use transform="matrix(0.010850694444444444,0,0,0.010850694444444444,122.16796875,0)" xlink:href="#bB"/><use transform="matrix(0.010850694444444444,0,0,0.010850694444444444,135.79644097222223,0)" xlink:href="#bs"/></g><path fill="#333" d="M1163 418H863v-597h-10C812-89 719 19 537 19 279 19 81-185 81-557c0-382 206-575 454-575 190 0 278 113 318 202h15v-188h295V418zM629-222c153 0 240-134 240-336 0-203-86-334-240-334-158 0-240 138-240 334 0 197 84 336 240 336" id="cp"/><g id="as"><use transform="matrix(0.010850694444444444,0,0,0.010850694444444444,0,0)" xlink:href="#bM"/><use transform="matrix(0.010850694444444444,0,0,0.010850694444444444,14.55078125,0)" xlink:href="#bx"/><use transform="matrix(0.010850694444444444,0,0,0.010850694444444444,27.78862847222222,0)" xlink:href="#cp"/><use transform="matrix(0.010850694444444444,0,0,0.010850694444444444,41.796875,0)" xlink:href="#bP"/><use transform="matrix(0.010850694444444444,0,0,0.010850694444444444,55.631510416666664,0)" xlink:href="#bx"/><use transform="matrix(0.010850694444444444,0,0,0.010850694444444444,68.86935763888889,0)" xlink:href="#bs"/><use transform="matrix(0.010850694444444444,0,0,0.010850694444444444,82.70399305555556,0)" xlink:href="#bA"/><use transform="matrix(0.010850694444444444,0,0,0.010850694444444444,95.77907986111111,0)" xlink:href="#bx"/></g></defs></g></svg>